<?xml version="1.0" encoding="UTF-8" standalone="no"?>
<!-- Created with Inkscape (http://www.inkscape.org/) -->

<svg
   xmlns:dc="http://purl.org/dc/elements/1.1/"
   xmlns:cc="http://creativecommons.org/ns#"
   xmlns:rdf="http://www.w3.org/1999/02/22-rdf-syntax-ns#"
   xmlns:svg="http://www.w3.org/2000/svg"
   xmlns="http://www.w3.org/2000/svg"
   xmlns:sodipodi="http://sodipodi.sourceforge.net/DTD/sodipodi-0.dtd"
   xmlns:inkscape="http://www.inkscape.org/namespaces/inkscape"
   width="744.09448819"
   height="1052.3622047"
   id="svg3039"
   version="1.1"
   inkscape:version="0.48.4 r9939"
   sodipodi:docname="main_logo.svg">
  <defs
     id="defs3041">
    <filter
       inkscape:collect="always"
       id="filter4021"
       inkscape:label="Torn edges"
       inkscape:menu="Distort"
       inkscape:menu-tooltip="Displace the outside of shapes and pictures without altering their content"
       height="1.4"
       y="-0.2"
       width="1.4"
       x="-0.2"
       color-interpolation-filters="sRGB">
      <feGaussianBlur
         inkscape:collect="always"
         stdDeviation="0.94351962"
         id="feGaussianBlur4023"
         result="fbSourceGraphic" />
      <feColorMatrix
         result="fbSourceGraphicAlpha"
         in="fbSourceGraphic"
         values="0 0 0 -1 0 0 0 0 -1 0 0 0 0 -1 0 0 0 0 1 0"
         id="feColorMatrix4025" />
      <feTurbulence
         id="feTurbulence4027"
         baseFrequency="0.05"
         numOctaves="5"
         type="fractalNoise"
         result="result91" />
      <feDisplacementMap
         id="feDisplacementMap4029"
         in2="result91"
         scale="25"
         result="result5"
         xChannelSelector="R"
         in="fbSourceGraphic"
         yChannelSelector="A" />
      <feComposite
         id="feComposite4031"
         in2="result5"
         in="fbSourceGraphic"
         operator="atop" />
    </filter>
    <filter
       inkscape:collect="always"
       id="filter3981"
       color-interpolation-filters="sRGB">
      <feGaussianBlur
         inkscape:collect="always"
         stdDeviation="0.6790236"
         id="feGaussianBlur3983" />
    </filter>
  </defs>
  <sodipodi:namedview
     id="base"
     pagecolor="#ffffff"
     bordercolor="#666666"
     borderopacity="1.0"
     inkscape:pageopacity="0.0"
     inkscape:pageshadow="2"
     inkscape:zoom="0.49497475"
     inkscape:cx="448.01601"
     inkscape:cy="637.06078"
     inkscape:document-units="px"
     inkscape:current-layer="layer1"
     showgrid="false"
     inkscape:window-width="1366"
     inkscape:window-height="744"
     inkscape:window-x="0"
     inkscape:window-y="24"
     inkscape:window-maximized="1"
     fit-margin-top="0.1"
     fit-margin-right="0.1"
     fit-margin-bottom="0.2"
     fit-margin-left="0.1">
    <sodipodi:guide
       position="0,0"
       orientation="0,744.09448"
       id="guide4079" />
    <sodipodi:guide
       position="744.09448,0"
       orientation="-1052.3622,0"
       id="guide4081" />
    <sodipodi:guide
       position="744.09448,1052.3622"
       orientation="0,-744.09448"
       id="guide4083" />
    <sodipodi:guide
       position="0,1052.3622"
       orientation="1052.3622,0"
       id="guide4085" />
  </sodipodi:namedview>
  <metadata
     id="metadata3044">
    <rdf:RDF>
      <cc:Work
         rdf:about="">
        <dc:format>image/svg+xml</dc:format>
        <dc:type
           rdf:resource="http://purl.org/dc/dcmitype/StillImage" />
        <dc:title></dc:title>
      </cc:Work>
    </rdf:RDF>
  </metadata>
  <g
     inkscape:label="Layer 1"
     inkscape:groupmode="layer"
     id="layer1">
    <g
       id="g4146">
      <path
         sodipodi:nodetypes="ccscccsccc"
         inkscape:connector-curvature="0"
         id="path3860"
         d="m 304.3125,379.1875 c -0.73149,0.0919 -1.33354,0.79431 -1.3125,1.53125 0.34079,39.19095 -0.0836,107.23859 -1.09375,146.34375 -0.48673,18.84168 -0.30869,24.26269 -0.30869,24.26269 -0.0158,0.79011 0.75716,7.70901 1.10544,12.70485 0.79023,-5.48448 1.38884,-8.9792 1.38948,-9.76946 0,0 0.32768,-8.31875 0.81377,-27.13563 1.01196,-39.17296 1.435,-107.19447 1.09375,-146.4375 0.007,-0.85195 -0.8422,-1.60643 -1.6875,-1.5 z"
         style="font-size:medium;font-style:normal;font-variant:normal;font-weight:normal;font-stretch:normal;text-indent:0;text-align:start;text-decoration:none;line-height:normal;letter-spacing:normal;word-spacing:normal;text-transform:none;direction:ltr;block-progression:tb;writing-mode:lr-tb;text-anchor:start;baseline-shift:baseline;color:#000000;fill:#010000;fill-opacity:1;stroke:none;stroke-width:3;marker:none;visibility:visible;display:inline;overflow:visible;enable-background:accumulate;font-family:Sans;-inkscape-font-specification:Sans" />
      <path
         sodipodi:nodetypes="cccsccc"
         inkscape:connector-curvature="0"
         id="path3826"
         d="m 278.6875,287.6875 c 0,0 -1.37701,2.1091 -1.625,2.40625 L 159.12119,421.421 c -0.5952,0.57484 -0.94724,3.68346 -0.32451,4.22835 0.62273,0.54489 2.9101,-0.38932 3.4008,-1.05556 3.4375,-2.1875 115.3293,-133.95987 115.3293,-133.95987 0.75934,-1.24381 0.40887,0.10536 1.16072,-2.94642 z"
         style="font-size:medium;font-style:normal;font-variant:normal;font-weight:normal;font-stretch:normal;text-indent:0;text-align:start;text-decoration:none;line-height:normal;letter-spacing:normal;word-spacing:normal;text-transform:none;direction:ltr;block-progression:tb;writing-mode:lr-tb;text-anchor:start;baseline-shift:baseline;color:#000000;fill:#010000;fill-opacity:1;stroke:none;stroke-width:3;marker:none;visibility:visible;display:inline;overflow:visible;enable-background:accumulate;font-family:Sans;-inkscape-font-specification:Sans" />
      <path
         sodipodi:nodetypes="csc"
         inkscape:connector-curvature="0"
         id="path3830"
         d="m 248.21429,273.43361 c 19.64286,-9.82143 29.30458,0.64699 28.57142,1.25 -7.74639,6.3712 -37.32143,0 -29.64286,2.5"
         style="fill:none;stroke:#010000;stroke-width:1.79999995;stroke-linecap:round;stroke-linejoin:miter;stroke-miterlimit:4;stroke-opacity:1;stroke-dasharray:none" />
      <path
         inkscape:connector-curvature="0"
         id="path3832"
         d="m 259.28571,277.71932 c 0.35715,11.96429 0.17858,11.96429 0.17858,11.96429"
         style="fill:none;stroke:#010000;stroke-width:1px;stroke-linecap:butt;stroke-linejoin:miter;stroke-opacity:1" />
      <path
         inkscape:connector-curvature="0"
         id="path3834"
         d="m 257.85714,274.1479 7.32143,-0.35715"
         style="fill:none;stroke:#010000;stroke-width:1px;stroke-linecap:round;stroke-linejoin:miter;stroke-opacity:1" />
      <path
         sodipodi:nodetypes="cccsc"
         inkscape:connector-curvature="0"
         id="path3836"
         d="m 277.58929,272.71932 c 0.89286,0.17857 8.75,-4.10714 8.75,-4.10714 0,0 -3.57143,2.14286 -4.28571,2.23215 1.51785,-3.92857 -2.13934,-3.18882 -2.67858,-3.12501 -1.37998,0.1633 -2.85714,3.03572 -2.85714,3.03572"
         style="fill:none;stroke:#010000;stroke-width:1px;stroke-linecap:round;stroke-linejoin:miter;stroke-opacity:1" />
      <path
         sodipodi:nodetypes="ccccccc"
         inkscape:connector-curvature="0"
         id="path3840"
         d="m 199.28062,382.51602 c -1.10748,0.0816 -1.7837,1.17517 -1.68497,2.28125 4.03114,63.99438 2.14737,141.30187 2.71558,149.38309 0.0204,3.48469 0.14892,8.33651 0.67104,12.1418 1.21659,-4.33907 1.69402,-7.45554 2.38004,-11.51109 0.50508,-5.74524 3.10227,-91.80843 -2.33677,-150.80013 -0.0505,-1.11763 -0.62908,-1.57585 -1.74492,-1.49492 z"
         style="font-size:medium;font-style:normal;font-variant:normal;font-weight:normal;font-stretch:normal;text-indent:0;text-align:start;text-decoration:none;line-height:normal;letter-spacing:normal;word-spacing:normal;text-transform:none;direction:ltr;block-progression:tb;writing-mode:lr-tb;text-anchor:start;baseline-shift:baseline;color:#000000;fill:#010000;fill-opacity:1;stroke:none;stroke-width:4.19999981;marker:none;visibility:visible;display:inline;overflow:visible;enable-background:accumulate;font-family:Sans;-inkscape-font-specification:Sans" />
      <path
         sodipodi:nodetypes="ccccccc"
         inkscape:connector-curvature="0"
         id="path3842"
         d="m 206.47224,377.625 c -1.77152,0.0926 -3.25514,1.90075 -3,3.65625 3.12033,33.5411 1.74159,70.98033 1.74159,70.98033 0,0 0.38803,8.86566 0.60214,17.89487 1.54277,-3.56131 3.77843,-13.89619 3.94196,-15.56524 0,0 4.70328,-39.57265 0.0581,-74.15371 -0.19209,-1.59152 -1.74285,-2.8959 -3.34375,-2.8125 z"
         style="font-size:medium;font-style:normal;font-variant:normal;font-weight:normal;font-stretch:normal;text-indent:0;text-align:start;text-decoration:none;line-height:normal;letter-spacing:normal;word-spacing:normal;text-transform:none;direction:ltr;block-progression:tb;writing-mode:lr-tb;text-anchor:start;baseline-shift:baseline;color:#000000;fill:#68c4dd;fill-opacity:1;stroke:none;stroke-width:6.4000001;marker:none;visibility:visible;display:inline;overflow:visible;enable-background:accumulate;font-family:Sans;-inkscape-font-specification:Sans" />
      <path
         sodipodi:nodetypes="ccscccscc"
         inkscape:connector-curvature="0"
         id="path3844"
         d="m 211.28125,370.28125 c -1.44035,0.19013 -2.5281,1.77514 -2.1875,3.1875 6.42773,28.67758 4.36289,70.76535 0.96494,105.5 -3.39795,34.73465 -4.39689,44.73112 -4.39689,44.73112 -0.87689,8.79164 -1.52091,11.49855 -1.18928,21.08791 2.85702,-9.47727 3.03847,-10.47485 4.42025,-17.37249 0,0 3.28041,-12.98067 6.70098,-47.94654 3.42057,-34.96587 5.26675,-77.21373 -1.4375,-107.125 -0.25798,-1.27122 -1.58814,-2.22547 -2.875,-2.0625 z"
         style="font-size:medium;font-style:normal;font-variant:normal;font-weight:normal;font-stretch:normal;text-indent:0;text-align:start;text-decoration:none;line-height:normal;letter-spacing:normal;word-spacing:normal;text-transform:none;direction:ltr;block-progression:tb;writing-mode:lr-tb;text-anchor:start;baseline-shift:baseline;color:#000000;fill:#010000;fill-opacity:1;stroke:none;stroke-width:5.19999981;marker:none;visibility:visible;display:inline;overflow:visible;enable-background:accumulate;font-family:Sans;-inkscape-font-specification:Sans" />
      <path
         sodipodi:nodetypes="ccscccscc"
         inkscape:connector-curvature="0"
         id="path3846"
         d="m 223.1875,360.28125 c -1.95019,0.0192 -3.53128,2.24633 -2.90625,4.09375 1.27177,10.69465 3.03177,23.94039 4.28125,38.34375 1.25299,14.44381 1.42857,16.42857 1.42857,16.42857 0.53572,4.93164 1.21345,8.82366 2.3058,13.5558 1.62807,-6.51785 2.12724,-11.92773 2.12724,-13.5558 0,0 0.15707,-6.04031 0.32589,-16.70982 0.23117,-14.61004 -1.76565,-30.98757 -4.5625,-39.9375 -0.37944,-1.27953 -1.66545,-2.23064 -3,-2.21875 z"
         style="font-size:medium;font-style:normal;font-variant:normal;font-weight:normal;font-stretch:normal;text-indent:0;text-align:start;text-decoration:none;line-height:normal;letter-spacing:normal;word-spacing:normal;text-transform:none;direction:ltr;block-progression:tb;writing-mode:lr-tb;text-anchor:start;baseline-shift:baseline;color:#000000;fill:#68c4dd;fill-opacity:1;stroke:none;stroke-width:6.19999981;marker:none;visibility:visible;display:inline;overflow:visible;enable-background:accumulate;font-family:Sans;-inkscape-font-specification:Sans" />
      <path
         sodipodi:nodetypes="ccscccc"
         inkscape:connector-curvature="0"
         id="path3848"
         d="m 227.5625,350.5625 c -1.79431,0.14821 -2.2394,3.47075 -1.41518,5.07143 13.31034,35.72782 9.85508,63.9145 9.74554,66.19196 -0.23427,4.87036 -0.4005,5.35436 -2.97098,14.40848 2.78665,-3.98159 3.56864,-5.40307 4.05133,-6.76116 0,0 14.03327,-35.86651 -6.72321,-77.37946 -0.48189,-0.98323 -1.59597,-1.618 -2.6875,-1.53125 z"
         style="font-size:medium;font-style:normal;font-variant:normal;font-weight:normal;font-stretch:normal;text-indent:0;text-align:start;text-decoration:none;line-height:normal;letter-spacing:normal;word-spacing:normal;text-transform:none;direction:ltr;block-progression:tb;writing-mode:lr-tb;text-anchor:start;baseline-shift:baseline;color:#000000;fill:#010000;fill-opacity:1;stroke:none;stroke-width:5.5;marker:none;visibility:visible;display:inline;overflow:visible;enable-background:accumulate;font-family:Sans;-inkscape-font-specification:Sans" />
      <path
         sodipodi:nodetypes="cscsscccsscc"
         inkscape:connector-curvature="0"
         id="path3850"
         d="m 249.5625,329.25 c -1.07577,0.0845 -2.07904,0.79755 -2.51256,1.78572 -0.43352,0.98817 -0.27877,2.20925 0.38756,3.05803 3.76508,4.91143 5.54997,13.728 6.09121,23.2876 0.54124,9.5596 -0.0958,19.79212 -1.52871,29.9624 -2.86582,20.34057 -3.99191,26.03696 -3.99191,26.03696 -0.43389,1.51361 -0.58774,4.80079 -1.85197,15.5885 3.15518,-8.27891 5.43205,-14.94388 5.86545,-16.45763 0,0 1.85356,-3.53998 5.91593,-24.32408 2.08399,-10.66223 2.41982,-21.60652 1.84375,-31.78125 -0.57607,-10.17473 -2.57864,-19.42668 -7.59375,-25.96875 -0.60236,-0.80038 -1.62617,-1.26354 -2.625,-1.1875 z"
         style="font-size:medium;font-style:normal;font-variant:normal;font-weight:normal;font-stretch:normal;text-indent:0;text-align:start;text-decoration:none;line-height:normal;letter-spacing:normal;word-spacing:normal;text-transform:none;direction:ltr;block-progression:tb;writing-mode:lr-tb;text-anchor:start;baseline-shift:baseline;color:#000000;fill:#68c4dd;fill-opacity:1;stroke:none;stroke-width:6;marker:none;visibility:visible;display:inline;overflow:visible;enable-background:accumulate;font-family:Sans;-inkscape-font-specification:Sans" />
      <path
         sodipodi:nodetypes="ccscccscc"
         inkscape:connector-curvature="0"
         id="path3852"
         d="m 259.9375,312.875 c -1.49983,0.10502 -2.67903,1.76882 -2.28125,3.21875 2.8823,21.64632 5.09871,42.68942 5.03886,66.58439 -0.0599,23.90887 -0.31836,30.49809 -0.31836,30.49809 -0.23207,1.36959 -2.41627,19.48491 -1.03474,19.62989 1.38152,0.14497 5.02978,-22.76147 5.08708,-24.1494 0,0 0.31055,2.31789 0.60216,-21.78172 0.31896,-26.36012 0.50888,-52.79765 -4.4375,-72.0625 -0.28321,-1.15681 -1.46822,-2.02116 -2.65625,-1.9375 z"
         style="font-size:medium;font-style:normal;font-variant:normal;font-weight:normal;font-stretch:normal;text-indent:0;text-align:start;text-decoration:none;line-height:normal;letter-spacing:normal;word-spacing:normal;text-transform:none;direction:ltr;block-progression:tb;writing-mode:lr-tb;text-anchor:start;baseline-shift:baseline;color:#000000;fill:#010000;fill-opacity:1;stroke:none;stroke-width:5.0999999;marker:none;visibility:visible;display:inline;overflow:visible;enable-background:accumulate;font-family:Sans;-inkscape-font-specification:Sans" />
      <path
         sodipodi:nodetypes="cccccccccccc"
         inkscape:connector-curvature="0"
         id="path3854"
         d="m 272.71875,322.96875 c -1.69455,0.0183 -3.18049,1.68999 -3,3.375 2.23689,37.99545 1.37373,84.59311 1.37373,84.59311 l 0.0951,12.84439 0.94638,8.67751 c 0,0 9.89398,49.81413 7.92529,87.60929 -0.26125,1.64758 -1.06197,2.42373 -0.0315,12.29207 2.0406,-11.2186 2.15041,-20.63639 2.17969,-22.30429 4.54697,-52.03758 -4.66613,-85.55359 -4.89483,-86.71208 0.0183,-0.53246 2.02402,-58.9624 -1.53125,-97.5625 -0.11885,-1.52033 -1.53757,-2.82324 -3.0625,-2.8125 z"
         style="font-size:medium;font-style:normal;font-variant:normal;font-weight:normal;font-stretch:normal;text-indent:0;text-align:start;text-decoration:none;line-height:normal;letter-spacing:normal;word-spacing:normal;text-transform:none;direction:ltr;block-progression:tb;writing-mode:lr-tb;text-anchor:start;baseline-shift:baseline;color:#000000;fill:#68c4dd;fill-opacity:1;stroke:none;stroke-width:6.0999999;marker:none;visibility:visible;display:inline;overflow:visible;enable-background:accumulate;font-family:Sans;-inkscape-font-specification:Sans" />
      <path
         sodipodi:nodetypes="cscsscccsscc"
         inkscape:connector-curvature="0"
         id="path3856"
         d="m 282.46875,339.75 c -0.97755,0.037 -1.91173,0.65078 -2.33381,1.53329 -0.42207,0.88251 -0.31347,1.99499 0.27131,2.77921 4.97722,6.92482 8.08399,24.14985 9,45.5 0.91601,21.35015 -0.0183,46.96608 -1.6875,71.5625 -3.33831,49.19284 -7.55357,90.40179 -7.55357,90.40179 -0.25947,1.42685 0.13093,2.55381 0.27247,7.13038 2.1951,-4.44129 2.24936,-5.87473 2.39271,-7.31788 0,0 6.94069,-40.44724 10.29464,-89.87054 1.67698,-24.71165 2.61817,-50.43318 1.6875,-72.125 -0.93067,-21.69182 -3.39171,-39.19988 -10.03125,-48.4375 -0.5133,-0.73767 -1.41438,-1.18821 -2.3125,-1.15625 z"
         style="font-size:medium;font-style:normal;font-variant:normal;font-weight:normal;font-stretch:normal;text-indent:0;text-align:start;text-decoration:none;line-height:normal;letter-spacing:normal;word-spacing:normal;text-transform:none;direction:ltr;block-progression:tb;writing-mode:lr-tb;text-anchor:start;baseline-shift:baseline;color:#000000;fill:#010000;fill-opacity:1;stroke:none;stroke-width:5.4000001;marker:none;visibility:visible;display:inline;overflow:visible;enable-background:accumulate;font-family:Sans;-inkscape-font-specification:Sans" />
      <path
         sodipodi:nodetypes="ccccccc"
         inkscape:connector-curvature="0"
         id="path3858"
         d="m 300.1875,373.03125 c -2.37379,-0.22675 -2.91475,1.35194 -3.03506,2.71875 -5.62752,52.18243 1.87881,131.49 1.87881,131.49 0.12272,1.5708 2.16866,14.00002 3.1081,25.87286 0.68692,-12.87588 1.62566,-27.92753 1.50294,-29.49833 0,0 -4.23749,-75.12371 0.23652,-125.85057 -0.79248,-3.05307 -1.89897,-4.93357 -3.69131,-4.73271 z"
         style="font-size:medium;font-style:normal;font-variant:normal;font-weight:normal;font-stretch:normal;text-indent:0;text-align:start;text-decoration:none;line-height:normal;letter-spacing:normal;word-spacing:normal;text-transform:none;direction:ltr;block-progression:tb;writing-mode:lr-tb;text-anchor:start;baseline-shift:baseline;color:#000000;fill:#68c4dd;fill-opacity:1;stroke:none;stroke-width:6;marker:none;visibility:visible;display:inline;overflow:visible;enable-background:accumulate;font-family:Sans;-inkscape-font-specification:Sans" />
      <path
         sodipodi:nodetypes="ccccccc"
         inkscape:connector-curvature="0"
         id="path3862"
         d="m 306.03125,385.1875 c -0.76145,0.0226 -1.43277,0.73867 -1.40625,1.5 0.72945,78.04766 1.32818,126.9629 0.72321,153.74107 -0.12459,0.81282 0.13334,8.61594 0.59832,12.38381 1.35783,-3.9107 2.00869,-12.57527 1.91954,-13.39274 0.60823,-26.92241 0.39463,-74.71893 -0.33482,-152.76339 0.0105,-0.78238 -0.71802,-1.49572 -1.5,-1.46875 z"
         style="font-size:medium;font-style:normal;font-variant:normal;font-weight:normal;font-stretch:normal;text-indent:0;text-align:start;text-decoration:none;line-height:normal;letter-spacing:normal;word-spacing:normal;text-transform:none;direction:ltr;block-progression:tb;writing-mode:lr-tb;text-anchor:start;baseline-shift:baseline;color:#000000;fill:#010000;fill-opacity:1;stroke:none;stroke-width:2.9000001;marker:none;visibility:visible;display:inline;overflow:visible;enable-background:accumulate;font-family:Sans;-inkscape-font-specification:Sans" />
      <path
         sodipodi:nodetypes="cc"
         inkscape:connector-curvature="0"
         id="path3866"
         d="m 227.7894,441.72497 c 5.80357,-2.14286 27.34501,0.92349 37.88072,-0.50508"
         style="fill:none;stroke:#010000;stroke-width:4.30000019;stroke-linecap:round;stroke-linejoin:miter;stroke-miterlimit:4;stroke-opacity:1;stroke-dasharray:none" />
      <path
         sodipodi:nodetypes="sccssscccssscs"
         inkscape:connector-curvature="0"
         id="path3868"
         d="m 262.55804,435.21429 c -0.75218,-0.4133 -1.76406,-0.52118 -3.24835,-0.70635 0.0336,3.16305 1.30629,3.67043 1.93585,4.23313 4.16721,3.79955 4.79967,9.9587 6.25446,20.88393 1.45479,10.92523 1.61437,24.16435 1.1875,37.40625 -0.42687,13.2419 -1.43219,26.49375 -2.25,37.5 -0.81781,11.00625 -0.20947,14.6646 0.13839,19.32589 0.0818,1.12901 0.24599,2.21574 1.01786,6.95536 0.5933,-4.36753 0.9211,-6.0942 0.83929,-7.22321 0.25222,-2.99517 1.46823,-7.74383 2.28571,-18.74554 0.81748,-11.00171 1.81914,-24.32169 2.25,-37.6875 0.43086,-13.36581 0.29048,-26.75969 -1.21875,-38.09375 -1.50923,-11.33406 -0.76137,-16.57346 -6.42411,-21.73661 -0.41386,-0.39521 -2.48577,-1.95661 -2.76785,-2.1116 z"
         style="font-size:medium;font-style:normal;font-variant:normal;font-weight:normal;font-stretch:normal;text-indent:0;text-align:start;text-decoration:none;line-height:normal;letter-spacing:normal;word-spacing:normal;text-transform:none;direction:ltr;block-progression:tb;writing-mode:lr-tb;text-anchor:start;baseline-shift:baseline;color:#000000;fill:#010000;fill-opacity:1;stroke:none;stroke-width:4.30000019;marker:none;visibility:visible;display:inline;overflow:visible;enable-background:accumulate;font-family:Sans;-inkscape-font-specification:Sans" />
      <path
         sodipodi:nodetypes="cscsssscccssssccc"
         inkscape:connector-curvature="0"
         id="path3828"
         d="m 248.53125,287.25 c -1.57094,-0.0984 -3.08978,1.24152 -3.18796,2.81247 -0.0982,1.57095 1.24199,3.08959 2.81296,3.18753 -1.10871,-0.12576 -0.3531,-0.12016 0.40625,0.59375 0.75935,0.71391 1.84589,1.88535 3.09375,3.40625 2.49572,3.04181 5.7523,7.51353 9.5,12.90625 7.49539,10.78545 16.95627,25.38638 26.6875,40.65625 19.46246,30.53975 35.79763,53.92311 44.08439,65.34042 0.92448,1.27627 4.18954,6.20517 8.24373,10.33145 -2.19612,-6.60658 -5.03277,-9.30344 -5.95725,-10.57971 -7.78467,-10.72555 -21.81234,-37.74973 -41.30837,-68.34216 -9.74802,-15.29622 -19.22134,-29.9205 -26.8125,-40.84375 -3.79558,-5.46162 -7.12743,-9.9774 -9.8125,-13.25 -1.34254,-1.6363 -2.51136,-2.95114 -3.59375,-3.96875 -1.08239,-1.01761 -1.74732,-1.98095 -3.84375,-2.21875 -0.10353,-0.0158 -0.20788,-0.0263 -0.3125,-0.0312 z"
         style="font-size:medium;font-style:normal;font-variant:normal;font-weight:normal;font-stretch:normal;text-indent:0;text-align:start;text-decoration:none;line-height:normal;letter-spacing:normal;word-spacing:normal;text-transform:none;direction:ltr;block-progression:tb;writing-mode:lr-tb;text-anchor:start;baseline-shift:baseline;color:#000000;fill:#010000;fill-opacity:1;stroke:none;stroke-width:6;marker:none;visibility:visible;display:inline;overflow:visible;enable-background:accumulate;font-family:Sans;-inkscape-font-specification:Sans" />
      <path
         sodipodi:nodetypes="cccccccc"
         inkscape:connector-curvature="0"
         id="path3838"
         d="m 199.34375,383.28125 c -0.53975,0.0493 -0.99912,0.55175 -1,1.09375 l -1.96685,156.78157 c 0.11766,4.62175 0.19694,4.02183 0.58869,7.69181 0.70742,-3.33796 1.05412,-4.86975 1.37753,-7.15554 l 2.18813,-157.28664 c 0.0159,-0.61456 -0.57469,-1.17404 -1.1875,-1.125 z"
         style="font-size:medium;font-style:normal;font-variant:normal;font-weight:normal;font-stretch:normal;text-indent:0;text-align:start;text-decoration:none;line-height:normal;letter-spacing:normal;word-spacing:normal;text-transform:none;direction:ltr;block-progression:tb;writing-mode:lr-tb;text-anchor:start;baseline-shift:baseline;color:#000000;fill:#010000;fill-opacity:1;stroke:none;stroke-width:2.20000005;marker:none;visibility:visible;display:inline;overflow:visible;enable-background:accumulate;font-family:Sans;-inkscape-font-specification:Sans" />
      <path
         sodipodi:nodetypes="ccscscc"
         inkscape:connector-curvature="0"
         id="path3937"
         d="m 226.09375,439.71875 c -0.62127,0.083 -1.11178,0.72215 -1.03125,1.34375 1.22897,12.1141 2.68166,61.0148 1.40625,86.20536 -0.37195,7.34644 0.10652,6.79124 0.55801,9.52709 0.9872,-3.51415 1.70129,-9.12475 1.75895,-9.75477 2.3428,-25.59655 -0.0772,-73.69892 -1.34821,-86.22768 -0.0523,-0.64312 -0.7034,-1.17309 -1.34375,-1.09375 z"
         style="font-size:medium;font-style:normal;font-variant:normal;font-weight:normal;font-stretch:normal;text-indent:0;text-align:start;text-decoration:none;line-height:normal;letter-spacing:normal;word-spacing:normal;text-transform:none;direction:ltr;block-progression:tb;writing-mode:lr-tb;text-anchor:start;baseline-shift:baseline;color:#000000;fill:#010000;fill-opacity:1;stroke:none;stroke-width:2.4000001;marker:none;visibility:visible;display:inline;overflow:visible;enable-background:accumulate;font-family:Sans;-inkscape-font-specification:Sans" />
      <path
         sodipodi:nodetypes="ccscccsccc"
         inkscape:connector-curvature="0"
         id="path3864"
         d="m 225.65625,434.75 c -1.06867,5.29869 -1.10044,12.71149 -1.09438,13.27808 -0.12696,8.6334 0.11573,18.7669 0.0319,41.53442 -0.0838,22.76752 -1.07641,40.98087 -1.05615,52.0487 -0.099,0.60897 -0.31235,2.32387 0.36312,5.80863 0.86488,-5.98542 0.85613,-8.25872 0.90797,-8.87351 1.28294,-10.77672 2.01366,-26.1973 2.09756,-48.98382 0.0839,-22.78652 -0.44125,-32.14323 -0.31567,-40.68242 0.0236,-0.6493 -0.42925,-7.9429 -0.93433,-14.13008 z"
         style="font-size:medium;font-style:normal;font-variant:normal;font-weight:normal;font-stretch:normal;text-indent:0;text-align:start;text-decoration:none;line-height:normal;letter-spacing:normal;word-spacing:normal;text-transform:none;direction:ltr;block-progression:tb;writing-mode:lr-tb;text-anchor:start;baseline-shift:baseline;color:#000000;fill:#010000;fill-opacity:1;stroke:none;stroke-width:2.29999995;marker:none;visibility:visible;display:inline;overflow:visible;enable-background:accumulate;font-family:Sans;-inkscape-font-specification:Sans" />
    </g>
    <g
       id="g4111">
      <path
         transform="matrix(0.8512008,0,0,0.91636536,205.71956,-44.348906)"
         inkscape:connector-curvature="0"
         id="path3921"
         d="m -52.857143,657.36218 c 0,1.90476 0,3.80953 0,5.71429 0,0.23809 0.168359,0.54593 0,0.71428 -0.168359,0.16836 -0.545927,-0.16835 -0.714286,0 -0.168358,0.16836 0,0.47619 0,0.71429 -0.238095,0 -0.501326,-0.10648 -0.714285,0 -0.30117,0.15058 -0.413117,0.5637 -0.714286,0.71429 -0.212959,0.10647 -0.47619,0 -0.714286,0 -0.238095,0 -0.501327,0.10647 -0.714285,0 -1.579325,-0.78967 -0.221659,-0.44332 -0.714286,-1.42858 -0.150585,-0.30117 -0.563701,-0.41311 -0.714286,-0.71428 -0.108691,-0.21738 0,-1.82117 0,-2.14286 0,-0.37351 0.09391,-2.66933 0,-2.85714 -0.150585,-0.30117 -0.563701,-0.41312 -0.714286,-0.71429 -0.212958,-0.42592 0.212959,-1.00265 0,-1.42857 -0.150584,-0.30117 -0.47619,-0.47619 -0.714285,-0.71428 -0.882645,-0.88265 -0.377568,-0.71429 -1.428572,-0.71429 -0.238095,0 -0.501327,-0.10648 -0.714285,0 -0.602339,0.30117 -0.826233,1.1274 -1.428572,1.42857 -0.212959,0.10648 -0.545927,-0.16836 -0.714286,0 -0.168358,0.16836 0.10648,0.50133 0,0.71429 -0.150584,0.30117 -0.563701,0.41311 -0.714285,0.71428 -0.212959,0.42592 0.212959,1.00266 0,1.42857 -0.150585,0.30117 -0.563701,0.41312 -0.714286,0.71429 -0.129155,0.25831 0,3.07461 0,3.57143 0,2.61905 0,5.23809 0,7.85714 0,0.50629 0.09234,4.10104 0,4.28572 -0.150585,0.30116 -0.563701,0.41311 -0.714286,0.71428 -0.212959,0.42592 0.212959,1.00265 0,1.42857 -0.150584,0.30117 -0.563701,0.41312 -0.714285,0.71429 -0.10648,0.21296 0.106479,0.50133 0,0.71428 -0.30117,0.60234 -1.127403,0.82624 -1.428572,1.42858 -0.106479,0.21295 0.10648,0.50132 0,0.71428 -0.150585,0.30117 -0.563701,0.41312 -0.714286,0.71429 -0.224472,0.44894 0.224473,2.4082 0,2.85714 -0.150584,0.30117 -0.563701,0.41312 -0.714285,0.71429 -0.10648,0.21295 0,0.47619 0,0.71428 0,0.2381 0,0.47619 0,0.71429 0,0.17323 0.02297,2.11988 0,2.14285 -0.168359,0.16836 -0.545927,-0.16835 -0.714286,0 -0.168359,0.16836 0,0.47619 0,0.71429 0,0.50629 0.09234,4.10104 0,4.28571 -0.150585,0.30117 -0.563701,0.41312 -0.714286,0.71429 -0.09391,0.18782 0,2.48363 0,2.85714 0,2.38095 0,4.76191 0,7.14286 0,0.17323 -0.02297,2.11989 0,2.14286 0.168359,0.16836 0.545927,-0.16836 0.714286,0 0.168359,0.16836 -0.168359,0.54592 0,0.71428 0.168359,0.16836 0.545927,-0.16836 0.714286,0 0.168358,0.16836 -0.10648,0.50133 0,0.71429 0.301169,0.60234 1.127402,0.82623 1.428571,1.42857 0.492628,0.98525 -0.865039,0.63891 0.714286,1.42857 0.212959,0.10648 0.501327,-0.10648 0.714286,0 0.301169,0.15059 0.413116,0.5637 0.714285,0.71429 0.25831,0.12915 3.074615,0 3.571429,0 0.321684,0 1.925476,0.10869 2.142857,0 0.301169,-0.15059 0.413116,-0.5637 0.714286,-0.71429 0.212959,-0.10648 0.501327,0.10648 0.714285,0 0.30117,-0.15058 0.413117,-0.5637 0.714286,-0.71428 0.212959,-0.10648 0.545927,0.16835 0.714286,0 0.168359,-0.16836 -0.10648,-0.50133 0,-0.71429 0.150585,-0.30117 0.563701,-0.41312 0.714286,-0.71429 0.106479,-0.21295 0,-0.47619 0,-0.71428 0,-0.2381 0,-0.47619 0,-0.71429 0,-1.19047 0,-2.38095 0,-3.57143 0,-1.67512 -0.168359,0.33672 0.714285,-1.42857 0.10648,-0.21296 0,-0.47619 0,-0.71428 0,-0.2381 0,-0.47619 0,-0.71429 0,-1.19048 0,-2.38095 0,-3.57143 0,-0.23809 0,-0.47619 0,-0.71428 0,-0.2381 -0.106479,-0.50133 0,-0.71429 0.150585,-0.30117 0.563701,-0.41312 0.714286,-0.71428 0.224472,-0.44895 -0.224472,-2.4082 0,-2.85715 0.150585,-0.30117 0.563701,-0.41311 0.714286,-0.71428 0.106479,-0.21296 -0.10648,-0.50133 0,-0.71429 0.428571,-0.85714 1.714285,-1.28571 2.142857,-2.14286 0.212959,-0.42591 -0.336718,-1.09185 0,-1.42857 0.168359,-0.16836 0.501327,0.10648 0.714286,0 0.602338,-0.30117 0.826232,-1.1274 1.428571,-1.42857 0.212959,-0.10648 0.545927,0.16836 0.714286,0 0.168358,-0.16836 -0.168359,-0.54593 0,-0.71428 0.168358,-0.16836 0.501327,0.10647 0.714285,0 0.30117,-0.15059 0.413117,-0.56371 0.714286,-0.71429 0.212959,-0.10648 0.545927,0.16836 0.714286,0 0.168359,-0.16836 -0.168359,-0.54593 0,-0.71429 0.336717,-0.33671 1.002654,0.21296 1.428571,0 0.30117,-0.15058 0.413117,-0.5637 0.714286,-0.71428 0.571429,-0.28572 1.571429,0.28571 2.142857,0 0.301169,-0.15059 0.413117,-0.5637 0.714286,-0.71429 0.07972,-0.0399 3.491703,-0.0399 3.571428,0 0.30117,0.15059 0.413117,0.5637 0.714286,0.71429 0.448945,0.22447 2.408199,-0.22447 2.857143,0 0.301169,0.15058 0.413116,0.5637 0.714286,0.71428 0.425917,0.21296 1.002653,-0.21295 1.428571,0 0.857143,0.42858 1.285714,1.71429 2.142857,2.14286 0.212959,0.10648 0.501327,-0.10648 0.714286,0 0.301169,0.15059 0.413116,0.5637 0.714286,0.71429 0.212959,0.10648 0.501327,-0.10648 0.714285,0 0.702878,0.35144 2.154266,2.5057 2.857143,2.85714 0.425918,0.21296 1.002654,-0.21296 1.428572,0 0.602338,0.30117 0.826233,1.1274 1.428571,1.42857 0.212959,0.10648 0.501327,-0.10648 0.714286,0 0.301169,0.15059 0.413116,0.5637 0.714286,0.71429 0.212958,0.10648 0.501326,-0.10648 0.714285,0 0.30117,0.15058 0.413117,0.5637 0.714286,0.71428 0.212959,0.10648 0.501327,-0.10648 0.714286,0 0.301169,0.15059 0.413116,0.5637 0.714285,0.71429 0.212959,0.10648 0.501327,-0.10648 0.714286,0 0.602339,0.30117 0.826233,1.1274 1.428572,1.42857 0.212958,0.10648 0.501326,-0.10648 0.714285,0 0.30117,0.15058 0.413117,0.5637 0.714286,0.71429 0.07972,0.0399 3.491703,0.0399 3.571429,0 0.301169,-0.15059 0.413116,-0.56371 0.714285,-0.71429 0.9852553,-0.49263 0.638909,0.86504 1.4285717,-0.71429 0.1064794,-0.21295 -0.1683587,-0.54592 0,-0.71428 0.1683588,-0.16836 0.5013269,0.10648 0.7142857,0 0.6023386,-0.30117 0.8262329,-1.1274 1.4285715,-1.42857 0.2129588,-0.10648 0.5013268,0.10648 0.7142857,0 0.6023386,-0.30117 0.8262328,-1.12741 1.4285714,-1.42857 0.2129589,-0.10648 0.5013269,0.10647 0.7142857,0 0.3011693,-0.15059 0.4131164,-0.56371 0.7142857,-0.71429 0.2129589,-0.10648 0.545927,0.16836 0.7142857,0 0.1683588,-0.16836 -0.1683587,-0.54593 0,-0.71429 0.1683588,-0.16835 0.5013269,0.10648 0.7142858,0 0.8571428,-0.42857 1.28571424,-1.71428 2.1428571,-2.14285 0.42591771,-0.21296 1.0918539,0.33671 1.4285714,0 1.4778826,-1.47789 -2.2584003,0.0578 0.7142857,-1.42857 0.4259178,-0.21296 1.0026538,0.21295 1.4285715,0 0.3011693,-0.15059 0.4131164,-0.56371 0.7142857,-0.71429 0.2129588,-0.10648 0.4761905,0 0.7142857,0 0.2380952,0 0.4761905,0 0.7142857,0 0.3367842,0 3.5390559,-0.0324 3.5714286,0 0.1683587,0.16836 -0.1064794,0.50133 0,0.71429 0.1505846,0.30116 0.4761905,0.47619 0.7142857,0.71428 0.238095,0.2381 0.47619,0.47619 0.714286,0.71429 0.376046,0.37604 1.952113,1.76137 2.142857,2.14285 0.106479,0.21296 -0.10648,0.50133 0,0.71429 0.150585,0.30117 0.563701,0.41312 0.714286,0.71429 0.24669,0.49338 -0.250729,3.3207 0,3.57142 0.168358,0.16836 0.47619,0 0.714285,0 0.238096,0 0.488409,0.0753 0.714286,0 1.010153,-0.33671 1.868506,-1.03311 2.857143,-1.42857 0.699072,-0.27963 1.443785,-0.43465 2.142857,-0.71428 0.988637,-0.39546 1.904762,-0.95238 2.857143,-1.42857 0.47619,-0.2381 0.98559,-0.41897 1.428571,-0.71429 0.280166,-0.18678 0.413117,-0.5637 0.714286,-0.71429 0.212959,-0.10648 0.545927,0.16836 0.714286,0 0.168358,-0.16835 -0.168359,-0.54592 0,-0.71428 0.168358,-0.16836 0.501327,0.10648 0.714285,0 0.857143,-0.42857 1.285715,-1.71429 2.142858,-2.14286 0.212958,-0.10648 0.545927,0.16836 0.714285,0 0.168359,-0.16836 -0.168358,-0.54593 0,-0.71428 0.168359,-0.16836 0.476191,0 0.714286,0 0.496814,0 3.313119,-0.12916 3.571429,0 0.301169,0.15058 0.413116,0.5637 0.714285,0.71428 0.212959,0.10648 0.501327,-0.10648 0.714286,0 0.602339,0.30117 0.826233,1.1274 1.428571,1.42857 0.212959,0.10648 0.501327,-0.10648 0.714286,0 0.301169,0.15059 0.413117,0.5637 0.714286,0.71429 0.212959,0.10648 0.501327,-0.10648 0.714286,0 1.146268,0.57313 0.282302,0.85544 1.428571,1.42857 0.212959,0.10648 0.501327,-0.10648 0.714286,0 0.857143,0.42857 1.285714,1.71429 2.142857,2.14286 0.212959,0.10648 0.501327,-0.10648 0.714286,0 0.301169,0.15058 0.47619,0.47619 0.714285,0.71428 0.238096,0.2381 0.476191,0.47619 0.714286,0.71429 0.238095,0.23809 0.47619,0.47619 0.714286,0.71428 0.238095,0.2381 0.413116,0.56371 0.714285,0.71429 0.212959,0.10648 0.501327,-0.10648 0.714286,0 0.857143,0.42857 1.285714,1.71429 2.142857,2.14286 0.07973,0.0399 3.491703,0.0399 3.571429,0 0.580795,-0.2904 0.591008,-1.13307 1.428571,-0.71429 0.30117,0.15059 0.413117,0.5637 0.714286,0.71429 0.212959,0.10648 0.545927,-0.16836 0.714286,0 0.168358,0.16836 0,0.47619 0,0.71428 0,0.2381 0,0.47619 0,0.71429 0,0.26231 0.02874,2.8284 0,2.85714 -0.168359,0.16836 -0.501327,-0.10648 -0.714286,0 -0.189651,0.0948 -2.048032,1.95321 -2.142857,2.14286 -0.10648,0.21296 0.106479,0.50133 0,0.71428 -0.351439,0.70288 -2.505704,2.15427 -2.857143,2.85715 -0.106479,0.21296 0.106479,0.50132 0,0.71428 -0.595408,1.19082 -1.428571,0.32274 -1.428571,2.14286 0,0.23809 -0.168359,0.54593 0,0.71429 0.168358,0.16835 0.47619,0 0.714285,0 0.476191,0 0.976818,0.15058 1.428572,0 1.010152,-0.33672 1.82414,-1.17033 2.857143,-1.42858 0.347994,-0.087 2.479448,0.18885 2.857142,0 0.30117,-0.15058 0.413117,-0.5637 0.714286,-0.71428 0.212959,-0.10648 0.545927,0.16836 0.714286,0 0.02874,-0.0287 0,-2.59483 0,-2.85714 0,-3.09524 0,-6.19048 0,-9.28572 0,-0.50629 -0.09234,-4.10103 0,-4.28571 0.150585,-0.30117 0.47619,-0.47619 0.714286,-0.71429 0.238095,-0.23809 0.413116,-0.5637 0.714285,-0.71428 0.212959,-0.10648 0.501327,0.10647 0.714286,0 0.301169,-0.15059 0.413116,-0.56371 0.714286,-0.71429 0.06089,-0.0304 2.796252,-0.0304 2.857143,0 0.301169,0.15058 0.413116,0.5637 0.714285,0.71429 0.425918,0.21295 1.091854,-0.33672 1.428572,0 0.168358,0.16835 -0.168359,0.54592 0,0.71428 0.336717,0.33672 1.091854,-0.33672 1.428571,0 0.376462,0.37646 0.418965,0.98559 0.714286,1.42857 0.186777,0.28017 0.607806,0.39485 0.714286,0.71429 0.150584,0.45175 -0.115494,0.9666 0,1.42857 0.129125,0.5165 0.58516,0.91207 0.714285,1.42857 0.115493,0.46197 0,0.95238 0,1.42857 0,1.19048 0,2.38095 0,3.57143 0,1.66667 0,3.33333 0,5 0,0.2381 -0.168358,0.54593 0,0.71429 0.168359,0.16836 0.476191,0 0.714286,0 0.238095,0 0.501327,0.10648 0.714286,0 0.45498,-0.22749 3.010166,-3.01017 3.571428,-3.57143 0.238096,-0.2381 0.476191,-0.47619 0.714286,-0.71429 0.238095,-0.23809 0.413116,-0.5637 0.714286,-0.71428 0.212959,-0.10648 0.501327,0.10648 0.714285,0 0.602339,-0.30117 0.826233,-1.12741 1.428572,-1.42857 0.212959,-0.10648 0.545927,0.16835 0.714286,0 0.02297,-0.023 0,-1.96963 0,-2.14286 0,-0.37352 0.09391,-2.66933 0,-2.85714 -0.150585,-0.30117 -0.563701,-0.41312 -0.714286,-0.71429 -0.10648,-0.21296 0.106479,-0.50133 0,-0.71429 -0.150585,-0.30117 -0.476191,-0.47619 -0.714286,-0.71428 -0.238095,-0.2381 -0.47619,-0.47619 -0.714286,-0.71429 -0.952381,-0.95238 -1.904761,-1.90476 -2.857142,-2.85714 -0.238096,-0.2381 -0.476191,-0.47619 -0.714286,-0.71429 -0.238095,-0.23809 -0.563701,-0.41311 -0.714286,-0.71428 -0.212959,-0.42592 0.212959,-1.00266 0,-1.42857 -0.150585,-0.30117 -0.563701,-0.41312 -0.714286,-0.71429 -0.106479,-0.21296 0,-0.47619 0,-0.71428 0,-0.2381 0,-0.4762 0,-0.71429 0,-0.2381 -0.106479,-0.50133 0,-0.71429 0.190745,-0.38148 1.766812,-1.76681 2.142858,-2.14285 0.238095,-0.2381 0.47619,-0.47619 0.714285,-0.71429 0.238096,-0.23809 0.413117,-0.5637 0.714286,-0.71428 0.184679,-0.0923 3.779427,0 4.285714,0 0.238096,0 0.545927,-0.16836 0.714286,0 0.168359,0.16835 -0.168359,0.54592 0,0.71428 0.168359,0.16836 0.501327,-0.10648 0.714286,0 0.18965,0.0948 2.048032,1.95321 2.142857,2.14286 0.106479,0.21296 -0.10648,0.50133 0,0.71428 0.301169,0.60234 1.127402,0.82624 1.428571,1.42858 0.10648,0.21295 -0.106479,0.50132 0,0.71428 0.150585,0.30117 0.563701,0.41312 0.714286,0.71429 0.09664,0.19328 0,3.97803 0,4.28571 0,2.61905 0,5.2381 0,7.85714 0,0.49682 -0.129155,3.31312 0,3.57143 0.150585,0.30117 0.563701,0.41312 0.714286,0.71429 0.106479,0.21296 -0.10648,0.50133 0,0.71428 0.150584,0.30117 0.563701,0.41312 0.714285,0.71429 0.212959,0.42592 -0.212958,1.00265 0,1.42857 0.150585,0.30117 0.563701,0.41312 0.714286,0.71429 0.212959,0.42591 -0.336717,1.09185 0,1.42857 0.100733,0.10073 1.996337,0.0733 2.142857,0 0.30117,-0.15059 0.476191,-0.47619 0.714286,-0.71429 0.47619,-0.47619 1.055017,-0.86824 1.428571,-1.42857 0.590642,-0.88596 0.83793,-1.97118 1.428572,-2.85714 0.186777,-0.28017 0.527508,-0.43412 0.714286,-0.71429 0.29532,-0.44298 0.418964,-0.98559 0.714285,-1.42857 0.373555,-0.56033 1.127402,-0.82623 1.428572,-1.42857 0.106479,-0.21296 -0.168359,-0.54593 0,-0.71429 0.525501,-0.5255 1.289098,0.57482 1.428571,0.71429 0.376046,0.37605 1.952113,1.76137 2.142857,2.14286 0.10648,0.21296 -0.106479,0.50132 0,0.71428 0.150585,0.30117 0.563701,0.41312 0.714286,0.71429 0.21296,0.42592 -0.212959,1.00265 0,1.42857 0.15058,0.30117 0.5637,0.41312 0.71429,0.71429 0.10648,0.21295 -0.16836,0.54592 0,0.71428 0.0287,0.0287 2.59483,0 2.85714,0 1.42857,0 2.85714,0 4.28571,0 0.2381,0 0.54593,0.16836 0.71429,0 0.16836,-0.16836 -0.16836,-0.54593 0,-0.71428 0.16836,-0.16836 0.47619,0 0.71428,0 0.2381,0 0.47619,0 0.71429,0 1.66667,0 3.33333,0 5,0 0.71429,0 1.46523,-0.22588 2.14286,0 2.64793,0.88264 -0.87068,0.71428 1.42857,0.71428 0.32168,0 1.92547,-0.10869 2.14286,0 0.30117,0.15059 0.41311,0.5637 0.71428,0.71429 0.21296,0.10648 0.47619,0 0.71429,0 0.23809,0 0.50132,0.10648 0.71428,0 0.30117,-0.15059 0.47619,-0.47619 0.71429,-0.71429 0.95238,-0.95238 1.90476,-1.90476 2.85714,-2.85714 0.2381,-0.2381 0.47619,-0.47619 0.71429,-0.71429 0.23809,-0.23809 0.41311,-0.5637 0.71428,-0.71428 0.21296,-0.10648 0.54593,0.16836 0.71429,0 0.16836,-0.16836 -0.16836,-0.54593 0,-0.71429 0.33672,-0.33672 1.00265,0.21296 1.42857,0 0.30117,-0.15058 0.41312,-0.5637 0.71429,-0.71428 0.42591,-0.21296 1.00265,0.21295 1.42857,0 0.30117,-0.15059 0.41311,-0.56371 0.71428,-0.71429 0.57143,-0.28571 1.57143,0.28571 2.14286,0 0.30117,-0.15058 0.41312,-0.5637 0.71429,-0.71429 0.21295,-0.10648 0.54592,0.16836 0.71428,0 0.16836,-0.16835 -0.23809,-0.71428 0,-0.71428 0.2381,0 0,0.95238 0,0.71428 0,-0.47619 0,-0.95238 0,-1.42857 0,-0.23809 -0.16836,-0.54592 0,-0.71428 0.16836,-0.16836 0.47619,0 0.71429,0 1.42857,0 2.85714,0 4.28571,0 0.2381,0 0.50133,-0.10648 0.71429,0 0.30117,0.15058 0.41311,0.5637 0.71428,0.71428 0.21296,0.10648 0.50133,-0.10648 0.71429,0 0.38149,0.19075 1.76681,1.76681 2.14286,2.14286 0.23809,0.23809 0.47619,0.47619 0.71428,0.71429 0.2381,0.23809 0.41312,0.5637 0.71429,0.71428 0.21296,0.10648 0.54592,-0.16836 0.71428,0 0.16836,0.16836 -0.16836,0.54593 0,0.71429 0.19545,0.19544 2.46965,-0.19375 2.85715,0 0.30117,0.15058 0.47619,0.47619 0.71428,0.71428 0.2381,0.2381 0.5637,0.41312 0.71429,0.71429 0.10648,0.21296 -0.10648,0.50133 0,0.71428 0.30117,0.60234 1.1274,0.82624 1.42857,1.42858 0.0923,0.18467 0,3.77942 0,4.28571 0,0.23809 0,0.47619 0,0.71429 0,0.23809 -0.16836,0.54592 0,0.71428 0.10073,0.10073 1.99634,0.0733 2.14286,0 0.30117,-0.15058 0.5637,-0.41312 0.71428,-0.71428 0.10648,-0.21296 -0.16836,-0.54593 0,-0.71429 1.47788,-1.47788 -0.0578,2.2584 1.42857,-0.71429 0.10648,-0.21295 -0.10648,-0.50132 0,-0.71428 0.15059,-0.30117 0.5637,-0.41312 0.71429,-0.71429 0.0939,-0.18781 0,-2.48363 0,-2.85714 0,-0.2381 0,-0.47619 0,-0.71429 0,-0.23809 0.16836,-0.54592 0,-0.71428 -0.16836,-0.16836 -0.54593,0.16836 -0.71429,0 -0.16836,-0.16836 0.16836,-0.54593 0,-0.71429 -0.16836,-0.16836 -0.54592,0.16836 -0.71428,0 -0.16836,-0.16836 0.10648,-0.50132 0,-0.71428 -0.15059,-0.30117 -0.47619,-0.47619 -0.71429,-0.71429 -0.23809,-0.23809 -0.41311,-0.5637 -0.71428,-0.71428 -0.21296,-0.10648 -0.54593,0.16835 -0.71429,0 -1.47788,-1.47789 2.2584,0.0578 -0.71429,-1.42858 -0.42591,-0.21295 -1.00265,0.21296 -1.42857,0 -0.30117,-0.15058 -0.41311,-0.5637 -0.71428,-0.71428 -0.42592,-0.21296 -1.00266,0.21296 -1.42857,0 -0.38149,-0.19075 -1.76682,-1.76681 -2.14286,-2.14286 -0.2381,-0.23809 -0.47619,-0.47619 -0.71429,-0.71428 -0.23809,-0.2381 -0.5637,-0.41312 -0.71428,-0.71429 -0.0939,-0.18782 0,-2.48363 0,-2.85714 0,-0.2381 0,-0.47619 0,-0.71429 0,-0.23809 -0.10648,-0.50133 0,-0.71428 1.48634,-2.97269 -0.0493,0.76359 1.42857,-0.71429 0.16836,-0.16836 -0.16836,-0.54593 0,-0.71429 0.16836,-0.16835 0.50133,-0.10648 0.71428,0 0.13673,0.0684 2.78878,2.72042 2.85715,2.85715 0.10648,0.21296 -0.10648,0.50132 0,0.71428 0.30117,0.60234 1.1274,0.82624 1.42857,1.42857 0.22531,0.45063 -0.22531,3.12081 0,3.57143 0.15058,0.30117 0.5637,0.41312 0.71428,0.71429 0.28572,0.57143 -0.28571,1.57143 0,2.14286 0.15059,0.30116 0.56371,0.41311 0.71429,0.71428 0.1416,0.28321 -0.14603,1.99683 0,2.14286 0.0287,0.0287 2.59483,0 2.85714,0 0.32169,0 1.92548,0.10869 2.14286,0 0.30117,-0.15059 0.41312,-0.5637 0.71429,-0.71429 0.42591,-0.21296 1.00265,0.21296 1.42857,0 0.18965,-0.0948 2.04803,-1.9532 2.14285,-2.14285 0.10648,-0.21296 0,-0.4762 0,-0.71429 0.2381,-0.2381 0.56371,-0.41312 0.71429,-0.71429 0.10648,-0.21295 -0.16836,-0.54592 0,-0.71428 0.16836,-0.16836 0.54593,0.16836 0.71429,0 0.33671,-0.33672 -0.33672,-1.09186 0,-1.42857 0.5255,-0.5255 1.28909,0.57481 1.42857,0.71428 0.23809,0.2381 0.5637,0.41312 0.71428,0.71429 0.10648,0.21296 -0.10648,0.50133 0,0.71428 0.15059,0.30117 0.5637,0.41312 0.71429,0.71429 0.0923,0.18468 0,3.77943 0,4.28571 0,0.32169 0.10869,1.92548 0,2.14286 -0.15059,0.30117 -0.5637,0.41312 -0.71429,0.71429 -0.10869,0.21738 0,1.82117 0,2.14285 0,0.2381 0,0.47619 0,0.71429 0,0.23809 -0.23809,0.71429 0,0.71429 0.33672,0 0.47619,-0.4762 0.71429,-0.71429 0.23809,-0.2381 0.5637,-0.41312 0.71428,-0.71429 0.10648,-0.21295 -0.10648,-0.50132 0,-0.71428 0.15059,-0.30117 0.56371,-0.41312 0.71429,-0.71429 0.0488,-0.0975 0.0488,-4.18816 0,-4.28571 -0.15058,-0.30117 -0.5637,-0.41312 -0.71429,-0.71429 -0.10648,-0.21296 0.16836,-0.54592 0,-0.71428 -0.16835,-0.16836 -0.54592,0.16836 -0.71428,0 -0.16836,-0.16836 0.16836,-0.54593 0,-0.71429 -0.16836,-0.16836 -0.50133,0.10648 -0.71429,0 -0.30117,-0.15058 -0.41311,-0.5637 -0.71428,-0.71428 -0.21296,-0.10648 -0.50133,0.10647 -0.71429,0 -0.30117,-0.15059 -0.47619,-0.4762 -0.71428,-0.71429 -0.2381,-0.2381 -0.56371,-0.41312 -0.71429,-0.71429 -0.10648,-0.21295 0.10648,-0.50132 0,-0.71428 -0.15058,-0.30117 -0.5637,-0.41312 -0.71429,-0.71429 -0.0733,-0.14652 -0.10073,-2.04212 0,-2.14285 0.16836,-0.16836 0.47619,0 0.71429,0 0.2381,0 0.50133,-0.10648 0.71429,0 0.30117,0.15058 0.41311,0.5637 0.71428,0.71428 0.42592,0.21296 1.42857,-0.47619 1.42857,0 0,0.2381 -0.95238,0 -0.71428,0 1.66666,0 3.33333,0 5,0 0.16973,0 2.69705,-0.0801 2.85714,0 0.85714,0.42857 1.28571,1.71429 2.14286,2.14286 1.90476,0 -0.2381,-0.2381 0.71428,0.71428 0.16836,0.16836 0.54593,-0.16835 0.71429,0 0.16836,0.16836 -0.10648,0.50133 0,0.71429 0.0684,0.13673 2.72041,2.78878 2.85714,2.85714 0.21296,0.10648 0.50133,-0.10648 0.71429,0 0.30117,0.15059 0.41311,0.5637 0.71428,0.71429 0.18782,0.0939 2.48363,0 2.85715,0 0.37351,0 2.66932,0.0939 2.85714,0 0.30117,-0.15059 0.47619,-0.47619 0.71428,-0.71429 0.42011,-0.4201 2.52638,-2.69175 2.85715,-2.85714 0.21296,-0.10648 0.54592,0.16836 0.71428,0 0.16836,-0.16836 -0.16836,-0.54593 0,-0.71429 0.16836,-0.16835 0.54593,0.16836 0.71429,0 0.16836,-0.16835 -0.16836,-0.54592 0,-0.71428 0.16836,-0.16836 0.47619,0 0.71428,0 1.42858,0 2.85715,0 4.28572,0 0.23809,0 0.47619,0 0.71428,0 0.2381,0 0.50133,-0.10648 0.71429,0 0.30117,0.15058 0.41312,0.5637 0.71429,0.71428 0.21295,0.10648 0.47619,0 0.71428,0 0.47619,0 0.97682,-0.15058 1.42857,0 0.31944,0.10648 0.41312,0.56371 0.71429,0.71429 0.18781,0.0939 2.48363,0 2.85714,0 3.57143,0 7.14286,0 10.71429,0 0.23809,0 0.47619,0 0.71428,0 0.2381,0 0.54593,-0.16836 0.71429,0 0.16836,0.16836 -0.16836,0.54593 0,0.71429 0.16836,0.16835 0.47619,0 0.71428,0 0.2381,0 0.47619,0 0.71429,0 1.90476,0 3.80952,0 5.71429,0 0.23809,0 0.47619,0 0.71428,0 0.2381,0 0.54593,0.16835 0.71429,0 0.16836,-0.16836 -0.16836,-0.54593 0,-0.71429 0.16836,-0.16836 0.50132,0.10648 0.71428,0 0.30117,-0.15058 0.41312,-0.5637 0.71429,-0.71429 0.0609,-0.0304 2.79625,-0.0304 2.85714,0 1.76529,0.88265 -0.24655,0.71429 1.42857,0.71429 0.26231,0 2.8284,-0.0287 2.85715,0 0.16835,0.16836 -0.16836,0.54593 0,0.71429 0.16835,0.16835 0.71428,-0.2381 0.71428,0 0,0.23809 -0.71428,0.23809 -0.71428,0 0,-0.27895 1.33841,-0.80445 0.71428,-1.42858 -0.023,-0.023 -1.96962,0 -2.14286,0 -3.33333,0 -6.66666,0 -10,0 -0.23809,0 -0.47619,0 -0.71428,0 -0.2381,0 -0.54593,0.16836 -0.71429,0 -0.16836,-0.16835 0.16836,-0.54592 0,-0.71428 -0.16836,-0.16836 -0.50132,0.10648 -0.71428,0 -0.30117,-0.15059 -0.47619,-0.47619 -0.71429,-0.71429 -0.23809,-0.23809 -0.5637,-0.41311 -0.71428,-0.71428 -0.0939,-0.18782 0,-2.48363 0,-2.85715 0,-0.33678 -0.0324,-3.53905 0,-3.57142 0.16835,-0.16836 0.54592,0.16835 0.71428,0 0.35714,-0.35715 -0.35714,-1.78572 0,-2.14286 0.16836,-0.16836 0.54593,0.16836 0.71429,0 0.33671,-0.33672 -0.21296,-1.00266 0,-1.42857 0.15058,-0.30117 0.71428,-0.37757 0.71428,-0.71429 0,-0.33672 -0.47619,-0.47619 -0.71428,-0.71428 -0.2381,-0.2381 -0.41312,-0.56371 -0.71429,-0.71429 -0.42592,-0.21296 -1.09185,0.33672 -1.42857,0 -0.16836,-0.16836 0.16836,-0.54593 0,-0.71429 -0.16836,-0.16835 -0.47619,0 -0.71429,0 -0.23809,0 -0.47619,0 -0.71428,0 -1.42857,0 -2.85714,0 -4.28572,0 -0.32168,0 -1.92547,-0.10869 -2.14285,0 -0.30117,0.15059 -0.41312,0.56371 -0.71429,0.71429 -0.21296,0.10648 -0.50133,-0.10648 -0.71428,0 -0.60234,0.30117 -0.82624,1.1274 -1.42858,1.42857 -0.18467,0.0923 -3.77942,0 -4.28571,0 -0.37351,0 -2.66933,0.0939 -2.85714,0 -0.18965,-0.0948 -2.04803,-1.95321 -2.14286,-2.14286 -0.10648,-0.21295 0.10648,-0.50132 0,-0.71428 -0.15058,-0.30117 -0.5637,-0.41312 -0.71429,-0.71429 -0.10648,-0.21296 0.10648,-0.50132 0,-0.71428 -1.48634,-2.97269 0.0493,0.76359 -1.42857,-0.71429 -0.16836,-0.16836 0.16836,-0.54593 0,-0.71428 -0.16836,-0.16836 -0.47619,0 -0.71428,0 -0.2381,0 -0.47619,0 -0.71429,0 -2.38095,0 -4.7619,0 -7.14286,0 -0.33678,0 -3.53905,-0.0324 -3.57142,0 -0.16836,0.16835 0.23809,0.71428 0,0.71428 -0.2381,0 0,-0.95238 0,-0.71428 0,0.47619 0,0.95238 0,1.42857 0,0.23809 0,0.47619 0,0.71428 0,0.2381 0.16835,0.54593 0,0.71429 -0.16836,0.16836 -0.50133,0.10648 -0.71429,0 -0.30117,-0.15059 -0.41312,-0.5637 -0.71429,-0.71429 -0.21295,-0.10648 -0.50132,0.10648 -0.71428,0 -0.30117,-0.15058 -0.41312,-0.5637 -0.71429,-0.71428 -0.21296,-0.10648 -0.50132,0.10648 -0.71428,0 -0.30117,-0.15059 -0.41312,-0.5637 -0.71429,-0.71429 -0.21296,-0.10648 -0.50133,0.10648 -0.71428,0 -0.38149,-0.19074 -1.76682,-1.76681 -2.14286,-2.14286 -0.2381,-0.23809 -0.47619,-0.47619 -0.71429,-0.71428 -0.23809,-0.2381 -0.41311,-0.5637 -0.71428,-0.71429 -0.21296,-0.10648 -0.54593,0.16836 -0.71429,0 -0.16836,-0.16836 0.10648,-0.50132 0,-0.71428 -0.15058,-0.30117 -0.5637,-0.41312 -0.71428,-0.71429 -0.10648,-0.21296 0,-0.47619 0,-0.71428 0,-0.2381 -0.2381,-0.71429 0,-0.71429 0.23809,0 0,0.95238 0,0.71429 0,-0.4762 0.21295,-1.00266 0,-1.42858 -0.10648,-0.21295 -0.47619,0 -0.71429,0 -0.32168,0 -1.92548,-0.10869 -2.14286,0 -0.30117,0.15059 -0.41311,0.56371 -0.71428,0.71429 -0.21296,0.10648 -0.47619,0 -0.71429,0 -0.39909,0 -3.14991,-0.14051 -3.57143,0 -0.50507,0.16836 -0.92349,0.54593 -1.42857,0.71429 -0.45175,0.15058 -0.95238,0 -1.42857,0 -1.19048,0 -2.38095,0 -3.57143,0 -0.23809,0 -0.47619,0 -0.71428,0 -0.2381,0 -0.50133,0.10647 -0.71429,0 -0.30117,-0.15059 -0.41312,-0.56371 -0.71429,-0.71429 -0.45062,-0.22531 -3.1208,0.22531 -3.57142,0 -0.60234,-0.30117 -0.82624,-1.1274 -1.42858,-1.42857 -0.42591,-0.21296 -1.09185,0.33672 -1.42857,0 -0.16836,-0.16836 0.16836,-0.54593 0,-0.71429 -0.16836,-0.16836 -0.47619,0 -0.71428,0 -0.2381,0 -0.54593,-0.16836 -0.71429,0 -0.17188,0.17188 0.17188,2.68527 0,2.85715 -0.16836,0.16835 -0.50133,-0.10648 -0.71428,0 -0.30117,0.15058 -0.41312,0.5637 -0.71429,0.71428 -0.42592,0.21296 -1.00265,-0.21296 -1.42857,0 -0.30117,0.15059 -0.41312,0.5637 -0.71429,0.71429 -0.18781,0.0939 -2.48363,0 -2.85714,0 -0.37351,0 -2.66933,0.0939 -2.85714,0 -0.70288,-0.35144 -2.15427,-2.50571 -2.85715,-2.85715 -0.21295,-0.10648 -0.50132,0.10648 -0.71428,0 -0.30117,-0.15058 -0.41312,-0.5637 -0.71429,-0.71428 -0.21296,-0.10648 -0.54592,0.16836 -0.71428,0 -0.16836,-0.16836 0.16836,-0.54593 0,-0.71429 -0.16836,-0.16836 -0.54593,0.16836 -0.71429,0 -0.16836,-0.16836 0.10648,-0.50132 0,-0.71428 -0.22749,-0.45498 -3.01016,-3.01017 -3.57143,-3.57143 -0.23809,-0.2381 -0.5637,-0.41312 -0.71428,-0.71429 -0.10648,-0.21296 0.16836,-0.54592 0,-0.71428 -0.16836,-0.16836 -0.71429,0.23809 -0.71429,0 0,-0.2381 0.88265,-0.16836 0.71429,0 -0.37646,0.37646 -0.98559,0.41896 -1.42857,0.71428 -0.28017,0.18678 -0.47619,0.47619 -0.71429,0.71429 -0.2381,0.23809 -0.5637,0.41311 -0.71429,0.71428 -0.10648,0.21296 0.10648,0.50133 0,0.71429 -0.15058,0.30117 -0.5637,0.41312 -0.71428,0.71429 -0.10648,0.21295 0.23809,0.71428 0,0.71428 -0.2381,0 0.23809,-0.71428 0,-0.71428 -1.16159,0 -0.18033,1.33841 -1.42857,0.71428 -0.60234,-0.30117 -0.82624,-1.1274 -1.42857,-1.42857 -0.21296,-0.10648 -0.48841,0.0753 -0.71429,0 -0.47619,-0.2381 -0.95238,-0.47619 -1.42857,-0.71429 -0.2381,0 -0.48841,0.0753 -0.71429,0 -0.50507,-0.16835 -0.92349,-0.54592 -1.42857,-0.71428 -0.45175,-0.15059 -1.09185,0.33672 -1.42857,0 -0.16836,-0.16836 0.16836,-0.54593 0,-0.71429 -0.16836,-0.16836 -0.50133,0.10648 -0.71429,0 -0.30117,-0.15058 -0.41311,-0.5637 -0.71428,-0.71428 -0.4436,-0.2218 -3.82802,0.22885 -4.28572,0 -0.30117,-0.15059 -0.41311,-0.5637 -0.71428,-0.71429 -0.42592,-0.21296 -1.00266,0.21296 -1.42857,0 -0.30117,-0.15058 -0.41312,-0.5637 -0.71429,-0.71428 -0.21296,-0.10648 -0.47619,0 -0.71428,0 -0.2381,0 -0.50133,-0.10648 -0.71429,0 -0.30117,0.15058 -0.47619,0.47619 -0.71429,0.71428 -0.23809,0.2381 -0.5637,0.41312 -0.71428,0.71429 -0.10648,0.21296 0.16836,0.54592 0,0.71428 -0.33672,0.33672 -1.00266,-0.21296 -1.42857,0 -0.60234,0.30117 -0.82624,1.1274 -1.42857,1.42857 -0.21296,0.10648 -0.48841,-0.0753 -0.71429,0 -0.50508,0.16836 -0.9235,0.54593 -1.42857,0.71429 -0.44957,0.14986 -2.9276,0 -3.57143,0 -0.321684,0 -1.925476,0.10869 -2.142857,0 -0.301169,-0.15058 -0.476191,-0.47619 -0.714286,-0.71429 -0.238095,-0.23809 -0.47619,-0.47619 -0.714286,-0.71428 -0.952381,-0.95238 -1.904761,-1.90476 -2.857142,-2.85714 -0.238096,-0.2381 -0.413117,-0.56371 -0.714286,-0.71429 -0.212959,-0.10648 -0.545927,0.16836 -0.714286,0 -0.168359,-0.16836 0.168359,-0.54593 0,-0.71429 -0.168359,-0.16835 -0.545927,0.16836 -0.714286,0 -0.168358,-0.16835 0.10648,-0.50132 0,-0.71428 -0.09483,-0.18965 -1.953206,-2.04803 -2.142857,-2.14286 -0.212959,-0.10648 -0.501327,0.10648 -0.714285,0 -0.30117,-0.15058 -0.413117,-0.5637 -0.714286,-0.71428 -0.212959,-0.10648 -0.545927,0.16835 -0.714286,0 -0.168359,-0.16836 0.168359,-0.54593 0,-0.71429 -0.357143,-0.35714 -1.785714,0.35714 -2.142857,0 -0.168359,-0.16836 0.168359,-0.54593 0,-0.71429 -0.168359,-0.16835 -0.488409,0.0753 -0.714286,0 -0.505076,-0.16835 -0.923495,-0.54592 -1.428571,-0.71428 -0.225877,-0.0753 -0.501327,0.10648 -0.714286,0 -0.301169,-0.15059 -0.413116,-0.5637 -0.714286,-0.71429 -0.283208,-0.1416 -1.996831,0.14603 -2.142857,0 -0.168358,-0.16836 0.10648,-0.50132 0,-0.71428 -2.368987,-2.36899 0.336718,0.67343 -0.714285,-1.42857 -1.486343,-2.97269 0.04931,0.76359 -1.428572,-0.71429 -0.168359,-0.16836 0.10648,-0.50133 0,-0.71429 -0.150585,-0.30117 -0.563701,-0.41311 -0.714286,-0.71428 -0.106479,-0.21296 0.168359,-0.54593 0,-0.71429 -0.168358,-0.16836 -0.545927,0.16836 -0.714285,0 -0.168359,-0.16836 0.168358,-0.54592 0,-0.71428 -0.336718,-0.33672 -1.002654,0.21296 -1.428572,0 -0.602338,-0.30117 -0.826233,-1.12741 -1.428571,-1.42857 -0.212959,-0.10648 -0.545927,0.16835 -0.714286,0 -0.168359,-0.16836 0.168359,-0.54593 0,-0.71429 -0.168359,-0.16836 -0.47619,0 -0.714286,0 -0.238095,0 -0.501326,-0.10648 -0.714285,0 -0.30117,0.15058 -0.476191,0.47619 -0.714286,0.71429 -0.238095,0.23809 -0.563701,0.41311 -0.714286,0.71428 -0.106479,0.21296 0.10648,0.50133 0,0.71429 -0.428571,0.85714 -1.714285,1.28571 -2.142857,2.14285 -0.106479,0.21296 0.10648,0.50133 0,0.71429 -2.368987,2.36899 0.336718,-0.67344 -0.714286,1.42857 -0.409434,0.81887 -1.490366,0.99358 -2.142857,1.42857 -0.280166,0.18678 -0.413116,0.5637 -0.714285,0.71429 -0.03737,0.0187 -2.105489,0.0187 -2.142858,0 -0.381488,-0.19075 -1.766811,-1.76681 -2.142857,-2.14286 -0.420103,-0.4201 -2.691757,-2.52637 -2.857143,-2.85714 -0.106479,-0.21296 0.10648,-0.50133 0,-0.71429 -0.09483,-0.18965 -1.953206,-2.04803 -2.142857,-2.14285 -0.212959,-0.10648 -0.501327,0.10647 -0.714285,0 -0.30117,-0.15059 -0.413117,-0.56371 -0.714286,-0.71429 -0.425918,-0.21296 -1.091854,0.33672 -1.428572,0 -0.168358,-0.16836 0.168359,-0.54593 0,-0.71429 -0.168358,-0.16835 -0.47619,0 -0.714285,0 -0.321684,0 -1.925476,-0.10869 -2.142857,0 -0.633099,0.31655 -1.492633,1.70938 -2.142858,2.14286 C 45.98559,651.22893 45.47619,651.4098 45,651.6479 c -0.47619,0.23809 -0.923495,0.54592 -1.428571,0.71428 -0.225877,0.0753 -0.501327,-0.10648 -0.714286,0 -0.301169,0.15059 -0.413117,0.5637 -0.714286,0.71429 -0.212959,0.10648 -0.501327,-0.10648 -0.714286,0 -0.301169,0.15058 -0.413116,0.5637 -0.714285,0.71428 -0.212959,0.10648 -0.476191,0 -0.714286,0 -0.238095,0 -0.47619,0 -0.714286,0 -1.496625,0 -2.185418,0.20973 -3.571428,-0.71428 -0.280166,-0.18678 -0.413117,-0.5637 -0.714286,-0.71429 -0.212959,-0.10648 -0.501327,0.10648 -0.714286,0 -0.602338,-0.30117 -0.826233,-1.1274 -1.428571,-1.42857 -0.212959,-0.10648 -0.545927,0.16836 -0.714286,0 -0.168359,-0.16836 0.168359,-0.54593 0,-0.71428 -0.168359,-0.16836 -0.47619,0 -0.714286,0 -0.238095,0 -0.47619,0 -0.714285,0 -0.122552,0 -4.023787,0.0873 -4.285715,0 -0.319438,-0.10648 -0.413116,-0.56371 -0.714285,-0.71429 -0.283209,-0.1416 -1.996831,0.14603 -2.142857,0 -0.168359,-0.16836 0.168358,-0.54593 0,-0.71429 -0.336718,-0.33671 -1.428572,0.47619 -1.428572,0 0,-0.23809 0.952381,0 0.714286,0 -0.476191,0 -0.952381,0 -1.428572,0 -0.238095,0 -0.47619,0 -0.714285,0 -0.238096,0 -0.501327,0.10648 -0.714286,0 -0.301169,-0.15058 -0.47619,-0.47619 -0.714286,-0.71428 -0.561262,-0.56126 -3.116448,-3.34394 -3.571428,-3.57143 -0.212959,-0.10648 -0.476191,0 -0.714286,0 -0.238095,0 -0.47619,0 -0.714286,0 -0.238095,0 -0.501327,-0.10648 -0.714285,0 -0.30117,0.15058 -0.413117,0.5637 -0.714286,0.71429 -0.212959,0.10647 -0.501327,-0.10648 -0.714286,0 -0.857143,0.42857 -1.285714,1.71428 -2.142857,2.14285 -0.2129589,0.10648 -0.5013269,-0.10648 -0.7142857,0 -0.2380953,0.2381 -0.4761905,0.47619 -0.7142857,0.71429 -0.2380953,0.23809 -0.4131164,0.5637 -0.7142857,0.71428 C 6.8376196,649.30052 5.7790054,647.0374 5,646.6479 c -0.2173814,-0.10869 -1.8211731,0 -2.1428571,0 -0.2380953,0 -0.4761905,0 -0.7142858,0 -0.2380952,0 -0.5459269,-0.16836 -0.7142857,0 -0.1683587,0.16836 0.1064795,0.50132 0,0.71428 -0.4285714,0.85715 -1.71428569,1.28572 -2.14285711,2.14286 -0.10647943,0.21296 0.16835875,0.54593 0,0.71429 -0.49999999,0.5 -0.92857139,-0.5 -1.42857139,0 -0.1683588,0.16835 0.1683587,0.54592 0,0.71428 -0.1683588,0.16836 -0.4761905,0 -0.7142858,0 -0.321684,0 -1.9254757,0.10869 -2.1428571,0 -0.3011693,-0.15058 -0.4761905,-0.47619 -0.7142857,-0.71428 -0.2380953,-0.2381 -0.4761905,-0.4762 -0.7142857,-0.71429 -0.376046,-0.37605 -1.9521129,-1.76137 -2.1428572,-2.14286 -0.1064794,-0.21296 0.1683588,-0.54592 0,-0.71428 -0.3571428,-0.35715 -1.7857144,0.35714 -2.1428574,0 -0.376461,-0.37646 -0.337824,-1.05211 -0.714285,-1.42857 -0.168359,-0.16836 -0.545927,0.16835 -0.714286,0 -0.336718,-0.33672 0.212959,-1.00266 0,-1.42858 -0.150585,-0.30117 -0.563701,-0.41311 -0.714286,-0.71428 -0.21344,-0.42688 0.470208,-1.42857 -0.714286,-1.42857 -0.238095,0 0.10648,0.50132 0,0.71428 -0.150584,0.30117 -0.47619,0.47619 -0.714285,0.71429 -0.561263,0.56126 -3.116449,3.34394 -3.571429,3.57143 -0.212959,0.10648 -0.501327,-0.10648 -0.714286,0 -0.301169,0.15058 -0.413116,0.5637 -0.714285,0.71428 -0.03737,0.0187 -2.105489,0.0187 -2.142857,0 -0.45498,-0.22749 -3.010167,-3.01016 -3.571429,-3.57143 -0.238095,-0.23809 -0.413116,-0.5637 -0.714286,-0.71428 -0.212959,-0.10648 -0.501327,0.10648 -0.714285,0 -0.30117,-0.15059 -0.413117,-0.5637 -0.714286,-0.71429 -0.212959,-0.10648 -0.476191,0 -0.714286,0 -0.238095,0 -0.545927,-0.16836 -0.714286,0 -0.168358,0.16836 0.168359,0.54593 0,0.71429 -0.168358,0.16836 -0.545927,-0.16836 -0.714285,0 -0.168359,0.16836 0.106479,0.50133 0,0.71428 -0.150585,0.30117 -0.563701,0.41312 -0.714286,0.71429 -0.212959,0.42592 0.212959,1.00265 0,1.42857 -0.428571,0.85714 -1.714286,1.28572 -2.142857,2.14286 -0.10648,0.21296 0.106479,0.50133 0,0.71428 -0.150585,0.30117 -0.563701,0.41312 -0.714286,0.71429 -0.212959,0.42592 0.336718,1.09185 0,1.42857 -0.168359,0.16836 -0.545927,-0.16836 -0.714286,0 -0.168358,0.16836 0,0.47619 0,0.71429 0,0.23809 0,0.47619 0,0.71428 0,0.26231 0.02874,2.8284 0,2.85715 -0.168358,0.16835 -0.545927,-0.16836 -0.714285,0 -0.168359,0.16835 0.168358,0.54592 0,0.71428 -0.336718,0.33672 -1.002654,-0.21296 -1.428572,0 -0.301169,0.15059 -0.413116,0.5637 -0.714285,0.71429 -0.217382,0.10869 -1.821174,0 -2.142858,0 -0.336784,0 -3.539055,0.0324 -3.571428,0 -0.168359,-0.16836 0.168359,-0.54593 0,-0.71429 -0.336718,-0.33672 -1.002654,0.21296 -1.428572,0 -0.301169,-0.15058 -0.47619,-0.47619 -0.714285,-0.71428 -0.238096,-0.2381 -0.563701,-0.41312 -0.714286,-0.71429 -0.106479,-0.21296 0.106479,-0.50133 0,-0.71429 -0.428571,-0.85714 -1.714286,-1.28571 -2.142857,-2.14285 -0.10648,-0.21296 0.168359,-0.54593 0,-0.71429 -0.168359,-0.16836 -0.545927,0.16836 -0.714286,0 -0.336717,-0.33672 0.336718,-1.09185 0,-1.42857 -0.168359,-0.16836 -0.545927,0.16836 -0.714286,0 -1.477882,-1.47788 2.258401,0.0578 -0.714285,-1.42857 -0.212959,-0.10648 -0.545927,0.16836 -0.714286,0 -0.168359,-0.16836 0.168359,-0.54593 0,-0.71429 -0.195444,-0.19544 -2.469652,0.19375 -2.857143,0 -0.301169,-0.15058 -0.413116,-0.5637 -0.714286,-0.71428 -0.212958,-0.10648 -0.47619,0 -0.714285,0 -0.238096,0 -0.501327,-0.10648 -0.714286,0 -2.972686,1.48634 0.763597,-0.0493 -0.714286,1.42857 -1.477882,1.47788 0.05777,-2.2584 -1.428571,0.71428 -0.10648,0.21296 0.106479,0.50133 0,0.71429 -0.150585,0.30117 -0.563701,0.41312 -0.714286,0.71429 -0.09234,0.18467 0,3.77942 0,4.28571 0,0.17323 -0.02297,2.11989 0,2.14286 0.05702,0.057 1.143101,-0.0476 1.428572,0 1.197533,0.19959 2.380952,0.47619 3.571428,0.71428 z"
         style="fill:#feab41;fill-opacity:1;stroke:none;filter:url(#filter4021)" />
      <path
         transform="matrix(0.89879529,0,0,0.89879529,17.875077,26.329948)"
         sodipodi:nodetypes="cssssccssccsscsssscssscsssccsssccssscc"
         inkscape:connector-curvature="0"
         id="path2998"
         d="m 240.92488,631.10227 c 0,0 -4.14133,8.4687 -11.36607,16.6875 -3.61238,4.1094 -7.73363,8.13211 -11.8125,10.96875 -4.07888,2.83664 -8.04355,4.38813 -11.34375,4.09375 -10.90101,-0.97239 -15.92326,-7.73845 -18.65625,-14.65625 -2.733,-6.9178 -2.71875,-13.65625 -2.71875,-13.65625 l -4.375,-1.40625 c 0,0 -4.90396,6.78904 -11.40625,13.03125 -3.25115,3.1211 -6.87417,6.09524 -10.34376,7.9375 -3.46958,1.84226 -6.6055,2.48313 -9.125,1.6875 l -1.46875,4.59375 c 4.26622,1.34723 8.74637,0.1131 12.84375,-2.0625 4.09738,-2.1756 7.99223,-5.38003 11.43751,-8.6875 3.31899,-3.18623 6.13329,-6.43404 8.25,-9 0.42313,2.69727 1.0924,5.93902 2.4375,9.34375 3.12522,7.9106 9.87853,16.51367 22.6875,17.65625 5.02132,0.44791 9.95162,-1.75261 14.53125,-4.9375 4.57962,-3.18489 8.88472,-7.45954 12.65625,-11.75 4.51183,-5.13262 7.75458,-9.59903 10.03125,-12.9375 0.97943,2.97157 2.45864,6.89324 4.625,10.9375 4.40052,8.21512 11.69383,17.18881 23.0625,18.65625 12.62528,1.62964 26.41142,-9.09163 36.10268,-17.3125 7.20778,-6.1142 10.62994,-11.94359 13.02232,-14.77679 0.99898,1.61145 2.41792,6.77481 4.5625,8.80804 4.83197,4.58111 14.85272,6.98525 28.12946,8.65625 11.25807,1.41694 22.25903,-2.61806 32.37054,-6.18304 10.11151,-3.56498 15.77679,-8.21428 15.77679,-8.21428 l -0.43304,-0.32143 c 0,0 -7.16684,3.77395 -16.9375,7.21875 -9.77066,3.4448 -22.11915,6.45841 -31.96875,5.21875 -12.38107,-1.55827 -19.87143,-3.44646 -23.98214,-7.34375 -4.11071,-3.89729 -4.76786,-9.59375 -4.76786,-9.59375 l -4.15625,-0.71875 c 0,0 -3.67911,7.86778 -12.95536,15.73661 -9.27625,7.86883 -24.4194,17.51935 -34.49553,16.21875 -9.13403,-1.179 -15.74942,-11.13566 -19.79465,-18.6875 -4.04523,-7.55184 -4.94196,-14.45536 -4.94196,-14.45536 z"
         style="font-size:medium;font-style:normal;font-variant:normal;font-weight:normal;font-stretch:normal;text-indent:0;text-align:start;text-decoration:none;line-height:normal;letter-spacing:normal;word-spacing:normal;text-transform:none;direction:ltr;block-progression:tb;writing-mode:lr-tb;text-anchor:start;baseline-shift:baseline;color:#000000;fill:#71bfd6;fill-opacity:1;stroke:none;stroke-width:4.80000019;marker:none;visibility:visible;display:inline;overflow:visible;filter:url(#filter3981);enable-background:accumulate;font-family:Sans;-inkscape-font-specification:Sans" />
      <path
         sodipodi:nodetypes="cscscsc"
         inkscape:connector-curvature="0"
         id="path4220"
         d="m 293.40114,618.39443 c 0,0 18.28336,12.93157 29.98616,12.95185 22.61704,0.0392 50.92277,-23.57458 50.92277,-23.57458 0,0 6.73608,24.21608 18.66212,26.75946 22.36384,4.76938 51.0482,-49.61662 51.0482,-49.61662 3.95698,14.50892 25.88591,58.61853 72.54456,60.67364 69.29208,3.05201 123.63804,-27.11027 123.63804,-27.11027"
         style="fill:none;stroke:#030202;stroke-width:11.44884872;stroke-linecap:butt;stroke-linejoin:bevel;stroke-miterlimit:4;stroke-opacity:1;stroke-dasharray:none" />
    </g>
    <g
       id="g4116">
      <text
         sodipodi:linespacing="125%"
         id="text4067"
         y="491.77765"
         x="328.96884"
         style="font-size:40px;font-style:italic;font-variant:normal;font-weight:normal;font-stretch:normal;line-height:125%;letter-spacing:-3.92999815999999980px;word-spacing:-3.15999924px;fill:#5fb9c6;fill-opacity:1;stroke:none;font-family:DejaVu Sans;-inkscape-font-specification:DejaVu Sans Italic"
         xml:space="preserve"><tspan
           style="font-style:italic;font-variant:normal;font-weight:normal;font-stretch:normal;letter-spacing:-3.92999815999999980px;fill:#5fb9c6;fill-opacity:1;font-family:DejaVu Sans;-inkscape-font-specification:DejaVu Sans Italic;word-spacing:-3.15999924px"
           dx="0"
           y="491.77765"
           x="328.96884"
           id="tspan4069"
           sodipodi:role="line">surf the 'waves with</tspan></text>
      <text
         sodipodi:linespacing="125%"
         id="text4071"
         y="544.68109"
         x="329.62747"
         style="font-size:56px;font-style:normal;font-variant:normal;font-weight:normal;font-stretch:normal;line-height:125%;letter-spacing:0px;word-spacing:0px;fill:#000000;fill-opacity:1;stroke:none;font-family:DejaVu Sans;-inkscape-font-specification:DejaVu Sans"
         xml:space="preserve"><tspan
           y="544.68109"
           x="329.62747"
           id="tspan4073"
           sodipodi:role="line">felixstowe</tspan></text>
      <text
         sodipodi:linespacing="125%"
         id="text4075"
         y="601.73981"
         x="467.98871"
         style="font-size:40px;font-style:normal;font-variant:normal;font-weight:normal;font-stretch:normal;line-height:125%;letter-spacing:0px;word-spacing:0px;fill:#000000;fill-opacity:1;stroke:none;font-family:DejaVu Serif;-inkscape-font-specification:DejaVu Serif"
         xml:space="preserve"><tspan
           style="font-size:56px;font-style:italic;font-variant:normal;font-weight:bold;font-stretch:normal;font-family:DejaVu Sans;-inkscape-font-specification:DejaVu Sans Bold Italic"
           y="601.73981"
           x="467.98871"
           id="tspan4077"
           sodipodi:role="line">radio</tspan></text>
    </g>
  </g>
</svg>
