<?xml version="1.0" encoding="UTF-8" standalone="no"?>
<!-- Created with Inkscape (http://www.inkscape.org/) -->

<svg
   xmlns:dc="http://purl.org/dc/elements/1.1/"
   xmlns:cc="http://creativecommons.org/ns#"
   xmlns:rdf="http://www.w3.org/1999/02/22-rdf-syntax-ns#"
   xmlns:svg="http://www.w3.org/2000/svg"
   xmlns="http://www.w3.org/2000/svg"
   xmlns:sodipodi="http://sodipodi.sourceforge.net/DTD/sodipodi-0.dtd"
   xmlns:inkscape="http://www.inkscape.org/namespaces/inkscape"
   width="268.42856"
   height="289.03406"
   id="svg3029"
   version="1.1"
   inkscape:version="0.48.4 r9939"
   sodipodi:docname="launcher.svg">
  <defs
     id="defs3031" />
  <sodipodi:namedview
     id="base"
     pagecolor="#ffffff"
     bordercolor="#666666"
     borderopacity="1.0"
     inkscape:pageopacity="0.0"
     inkscape:pageshadow="2"
     inkscape:zoom="1.4"
     inkscape:cx="103.14936"
     inkscape:cy="146.31368"
     inkscape:document-units="px"
     inkscape:current-layer="layer1"
     showgrid="false"
     fit-margin-top="0.1"
     fit-margin-right="0.1"
     fit-margin-bottom="0.1"
     fit-margin-left="0.1"
     inkscape:window-width="1366"
     inkscape:window-height="744"
     inkscape:window-x="0"
     inkscape:window-y="24"
     inkscape:window-maximized="1" />
  <metadata
     id="metadata3034">
    <rdf:RDF>
      <cc:Work
         rdf:about="">
        <dc:format>image/svg+xml</dc:format>
        <dc:type
           rdf:resource="http://purl.org/dc/dcmitype/StillImage" />
        <dc:title />
      </cc:Work>
    </rdf:RDF>
  </metadata>
  <g
     inkscape:label="Layer 1"
     inkscape:groupmode="layer"
     id="layer1"
     transform="translate(-243.7627,-392.16706)">
    <rect
       style="fill:#ffffff;fill-opacity:1;stroke:#010000;stroke-width:1.57849586;stroke-linecap:round;stroke-miterlimit:4;stroke-opacity:1;stroke-dasharray:none"
       id="rect4267"
       width="266.65005"
       height="287.25555"
       x="244.65195"
       y="393.0563"
       ry="28.847691"
       rx="28.847691" />
    <path
       style="font-size:medium;font-style:normal;font-variant:normal;font-weight:normal;font-stretch:normal;text-indent:0;text-align:start;text-decoration:none;line-height:normal;letter-spacing:normal;word-spacing:normal;text-transform:none;direction:ltr;block-progression:tb;writing-mode:lr-tb;text-anchor:start;baseline-shift:baseline;color:#000000;fill:#010000;fill-opacity:1;stroke:none;stroke-width:3;marker:none;visibility:visible;display:inline;overflow:visible;enable-background:accumulate;font-family:Sans;-inkscape-font-specification:Sans"
       d="m 429.9922,495.97288 c -0.73149,0.0919 -1.33354,0.79431 -1.3125,1.53125 0.34079,39.19095 -0.0836,107.23859 -1.09375,146.34375 -0.48673,18.84168 -0.30869,24.26269 -0.30869,24.26269 -0.0158,0.79011 0.75716,7.70901 1.10544,12.70485 0.79023,-5.48448 1.38884,-8.9792 1.38948,-9.76946 0,0 0.32768,-8.31875 0.81377,-27.13563 1.01196,-39.17296 1.435,-107.19447 1.09375,-146.4375 0.007,-0.85195 -0.8422,-1.60643 -1.6875,-1.5 z"
       id="path3860"
       inkscape:connector-curvature="0"
       sodipodi:nodetypes="ccscccsccc" />
    <path
       style="font-size:medium;font-style:normal;font-variant:normal;font-weight:normal;font-stretch:normal;text-indent:0;text-align:start;text-decoration:none;line-height:normal;letter-spacing:normal;word-spacing:normal;text-transform:none;direction:ltr;block-progression:tb;writing-mode:lr-tb;text-anchor:start;baseline-shift:baseline;color:#000000;fill:#010000;fill-opacity:1;stroke:none;stroke-width:3;marker:none;visibility:visible;display:inline;overflow:visible;enable-background:accumulate;font-family:Sans;-inkscape-font-specification:Sans"
       d="m 404.3672,404.47288 c 0,0 -1.37701,2.1091 -1.625,2.40625 L 284.80089,538.20638 c -0.5952,0.57484 -0.94724,3.68346 -0.32451,4.22835 0.62273,0.54489 2.9101,-0.38932 3.4008,-1.05556 3.4375,-2.1875 115.3293,-133.95987 115.3293,-133.95987 0.75934,-1.24381 0.40887,0.10536 1.16072,-2.94642 z"
       id="path3826"
       inkscape:connector-curvature="0"
       sodipodi:nodetypes="cccsccc" />
    <path
       style="font-size:medium;font-style:normal;font-variant:normal;font-weight:normal;font-stretch:normal;text-indent:0;text-align:start;text-decoration:none;line-height:normal;letter-spacing:normal;word-spacing:normal;text-transform:none;direction:ltr;block-progression:tb;writing-mode:lr-tb;text-anchor:start;baseline-shift:baseline;color:#000000;fill:#010000;fill-opacity:1;stroke:none;stroke-width:4.19999981;marker:none;visibility:visible;display:inline;overflow:visible;enable-background:accumulate;font-family:Sans;-inkscape-font-specification:Sans"
       d="m 324.96032,499.3014 c -1.10748,0.0816 -1.7837,1.17517 -1.68497,2.28125 4.03114,63.99438 2.14737,141.30187 2.71558,149.38309 0.0204,3.48469 0.14892,8.33651 0.67104,12.1418 1.21659,-4.33907 1.69402,-7.45554 2.38004,-11.51109 0.50508,-5.74524 3.10227,-91.80843 -2.33677,-150.80013 -0.0505,-1.11763 -0.62908,-1.57585 -1.74492,-1.49492 z"
       id="path3840"
       inkscape:connector-curvature="0"
       sodipodi:nodetypes="ccccccc" />
    <path
       style="font-size:medium;font-style:normal;font-variant:normal;font-weight:normal;font-stretch:normal;text-indent:0;text-align:start;text-decoration:none;line-height:normal;letter-spacing:normal;word-spacing:normal;text-transform:none;direction:ltr;block-progression:tb;writing-mode:lr-tb;text-anchor:start;baseline-shift:baseline;color:#000000;fill:#68c4dd;fill-opacity:1;stroke:none;stroke-width:6.4000001;marker:none;visibility:visible;display:inline;overflow:visible;enable-background:accumulate;font-family:Sans;-inkscape-font-specification:Sans"
       d="m 332.15194,494.41038 c -1.77152,0.0926 -3.25514,1.90075 -3,3.65625 3.12033,33.5411 1.74159,70.98033 1.74159,70.98033 0,0 0.38803,8.86566 0.60214,17.89487 1.54277,-3.56131 3.77843,-13.89619 3.94196,-15.56524 0,0 4.70328,-39.57265 0.0581,-74.15371 -0.19209,-1.59152 -1.74285,-2.8959 -3.34375,-2.8125 z"
       id="path3842"
       inkscape:connector-curvature="0"
       sodipodi:nodetypes="ccccccc" />
    <path
       style="font-size:medium;font-style:normal;font-variant:normal;font-weight:normal;font-stretch:normal;text-indent:0;text-align:start;text-decoration:none;line-height:normal;letter-spacing:normal;word-spacing:normal;text-transform:none;direction:ltr;block-progression:tb;writing-mode:lr-tb;text-anchor:start;baseline-shift:baseline;color:#000000;fill:#010000;fill-opacity:1;stroke:none;stroke-width:5.19999981;marker:none;visibility:visible;display:inline;overflow:visible;enable-background:accumulate;font-family:Sans;-inkscape-font-specification:Sans"
       d="m 336.96095,487.06663 c -1.44035,0.19013 -2.5281,1.77514 -2.1875,3.1875 6.42773,28.67758 4.36289,70.76535 0.96494,105.5 -3.39795,34.73465 -4.39689,44.73112 -4.39689,44.73112 -0.87689,8.79164 -1.52091,11.49855 -1.18928,21.08791 2.85702,-9.47727 3.03847,-10.47485 4.42025,-17.37249 0,0 3.28041,-12.98067 6.70098,-47.94654 3.42057,-34.96587 5.26675,-77.21373 -1.4375,-107.125 -0.25798,-1.27122 -1.58814,-2.22547 -2.875,-2.0625 z"
       id="path3844"
       inkscape:connector-curvature="0"
       sodipodi:nodetypes="ccscccscc" />
    <path
       style="font-size:medium;font-style:normal;font-variant:normal;font-weight:normal;font-stretch:normal;text-indent:0;text-align:start;text-decoration:none;line-height:normal;letter-spacing:normal;word-spacing:normal;text-transform:none;direction:ltr;block-progression:tb;writing-mode:lr-tb;text-anchor:start;baseline-shift:baseline;color:#000000;fill:#68c4dd;fill-opacity:1;stroke:none;stroke-width:6.19999981;marker:none;visibility:visible;display:inline;overflow:visible;enable-background:accumulate;font-family:Sans;-inkscape-font-specification:Sans"
       d="m 348.8672,477.06663 c -1.95019,0.0192 -3.53128,2.24633 -2.90625,4.09375 1.27177,10.69465 3.03177,23.94039 4.28125,38.34375 1.25299,14.44381 1.42857,16.42857 1.42857,16.42857 0.53572,4.93164 1.21345,8.82366 2.3058,13.5558 1.62807,-6.51785 2.12724,-11.92773 2.12724,-13.5558 0,0 0.15707,-6.04031 0.32589,-16.70982 0.23117,-14.61004 -1.76565,-30.98757 -4.5625,-39.9375 -0.37944,-1.27953 -1.66545,-2.23064 -3,-2.21875 z"
       id="path3846"
       inkscape:connector-curvature="0"
       sodipodi:nodetypes="ccscccscc" />
    <path
       style="font-size:medium;font-style:normal;font-variant:normal;font-weight:normal;font-stretch:normal;text-indent:0;text-align:start;text-decoration:none;line-height:normal;letter-spacing:normal;word-spacing:normal;text-transform:none;direction:ltr;block-progression:tb;writing-mode:lr-tb;text-anchor:start;baseline-shift:baseline;color:#000000;fill:#010000;fill-opacity:1;stroke:none;stroke-width:5.5;marker:none;visibility:visible;display:inline;overflow:visible;enable-background:accumulate;font-family:Sans;-inkscape-font-specification:Sans"
       d="m 353.2422,467.34788 c -1.79431,0.14821 -2.2394,3.47075 -1.41518,5.07143 13.31034,35.72782 9.85508,63.9145 9.74554,66.19196 -0.23427,4.87036 -0.4005,5.35436 -2.97098,14.40848 2.78665,-3.98159 3.56864,-5.40307 4.05133,-6.76116 0,0 14.03327,-35.86651 -6.72321,-77.37946 -0.48189,-0.98323 -1.59597,-1.618 -2.6875,-1.53125 z"
       id="path3848"
       inkscape:connector-curvature="0"
       sodipodi:nodetypes="ccscccc" />
    <path
       style="font-size:medium;font-style:normal;font-variant:normal;font-weight:normal;font-stretch:normal;text-indent:0;text-align:start;text-decoration:none;line-height:normal;letter-spacing:normal;word-spacing:normal;text-transform:none;direction:ltr;block-progression:tb;writing-mode:lr-tb;text-anchor:start;baseline-shift:baseline;color:#000000;fill:#68c4dd;fill-opacity:1;stroke:none;stroke-width:6;marker:none;visibility:visible;display:inline;overflow:visible;enable-background:accumulate;font-family:Sans;-inkscape-font-specification:Sans"
       d="m 375.2422,446.03538 c -1.07577,0.0845 -2.07904,0.79755 -2.51256,1.78572 -0.43352,0.98817 -0.27877,2.20925 0.38756,3.05803 3.76508,4.91143 5.54997,13.728 6.09121,23.2876 0.54124,9.5596 -0.0958,19.79212 -1.52871,29.9624 -2.86582,20.34057 -3.99191,26.03696 -3.99191,26.03696 -0.43389,1.51361 -0.58774,4.80079 -1.85197,15.5885 3.15518,-8.27891 5.43205,-14.94388 5.86545,-16.45763 0,0 1.85356,-3.53998 5.91593,-24.32408 2.08399,-10.66223 2.41982,-21.60652 1.84375,-31.78125 -0.57607,-10.17473 -2.57864,-19.42668 -7.59375,-25.96875 -0.60236,-0.80038 -1.62617,-1.26354 -2.625,-1.1875 z"
       id="path3850"
       inkscape:connector-curvature="0"
       sodipodi:nodetypes="cscsscccsscc" />
    <path
       style="font-size:medium;font-style:normal;font-variant:normal;font-weight:normal;font-stretch:normal;text-indent:0;text-align:start;text-decoration:none;line-height:normal;letter-spacing:normal;word-spacing:normal;text-transform:none;direction:ltr;block-progression:tb;writing-mode:lr-tb;text-anchor:start;baseline-shift:baseline;color:#000000;fill:#010000;fill-opacity:1;stroke:none;stroke-width:5.0999999;marker:none;visibility:visible;display:inline;overflow:visible;enable-background:accumulate;font-family:Sans;-inkscape-font-specification:Sans"
       d="m 385.6172,429.66038 c -1.49983,0.10502 -2.67903,1.76882 -2.28125,3.21875 2.8823,21.64632 5.09871,42.68942 5.03886,66.58439 -0.0599,23.90887 -0.31836,30.49809 -0.31836,30.49809 -0.23207,1.36959 -2.41627,19.48491 -1.03474,19.62989 1.38152,0.14497 5.02978,-22.76147 5.08708,-24.1494 0,0 0.31055,2.31789 0.60216,-21.78172 0.31896,-26.36012 0.50888,-52.79765 -4.4375,-72.0625 -0.28321,-1.15681 -1.46822,-2.02116 -2.65625,-1.9375 z"
       id="path3852"
       inkscape:connector-curvature="0"
       sodipodi:nodetypes="ccscccscc" />
    <path
       style="font-size:medium;font-style:normal;font-variant:normal;font-weight:normal;font-stretch:normal;text-indent:0;text-align:start;text-decoration:none;line-height:normal;letter-spacing:normal;word-spacing:normal;text-transform:none;direction:ltr;block-progression:tb;writing-mode:lr-tb;text-anchor:start;baseline-shift:baseline;color:#000000;fill:#68c4dd;fill-opacity:1;stroke:none;stroke-width:6.0999999;marker:none;visibility:visible;display:inline;overflow:visible;enable-background:accumulate;font-family:Sans;-inkscape-font-specification:Sans"
       d="m 398.39845,439.75413 c -1.69455,0.0183 -3.18049,1.68999 -3,3.375 2.23689,37.99545 1.37373,84.59311 1.37373,84.59311 l 0.0951,12.84439 0.94638,8.67751 c 0,0 9.89398,49.81413 7.92529,87.60929 -0.26125,1.64758 -1.06197,2.42373 -0.0315,12.29207 2.0406,-11.2186 2.15041,-20.63639 2.17969,-22.30429 4.54697,-52.03758 -4.66613,-85.55359 -4.89483,-86.71208 0.0183,-0.53246 2.02402,-58.9624 -1.53125,-97.5625 -0.11885,-1.52033 -1.53757,-2.82324 -3.0625,-2.8125 z"
       id="path3854"
       inkscape:connector-curvature="0"
       sodipodi:nodetypes="cccccccccccc" />
    <path
       style="font-size:medium;font-style:normal;font-variant:normal;font-weight:normal;font-stretch:normal;text-indent:0;text-align:start;text-decoration:none;line-height:normal;letter-spacing:normal;word-spacing:normal;text-transform:none;direction:ltr;block-progression:tb;writing-mode:lr-tb;text-anchor:start;baseline-shift:baseline;color:#000000;fill:#010000;fill-opacity:1;stroke:none;stroke-width:5.4000001;marker:none;visibility:visible;display:inline;overflow:visible;enable-background:accumulate;font-family:Sans;-inkscape-font-specification:Sans"
       d="m 408.14845,456.53538 c -0.97755,0.037 -1.91173,0.65078 -2.33381,1.53329 -0.42207,0.88251 -0.31347,1.99499 0.27131,2.77921 4.97722,6.92482 8.08399,24.14985 9,45.5 0.91601,21.35015 -0.0183,46.96608 -1.6875,71.5625 -3.33831,49.19284 -7.55357,90.40179 -7.55357,90.40179 -0.25947,1.42685 0.13093,2.55381 0.27247,7.13038 2.1951,-4.44129 2.24936,-5.87473 2.39271,-7.31788 0,0 6.94069,-40.44724 10.29464,-89.87054 1.67698,-24.71165 2.61817,-50.43318 1.6875,-72.125 -0.93067,-21.69182 -3.39171,-39.19988 -10.03125,-48.4375 -0.5133,-0.73767 -1.41438,-1.18821 -2.3125,-1.15625 z"
       id="path3856"
       inkscape:connector-curvature="0"
       sodipodi:nodetypes="cscsscccsscc" />
    <path
       style="font-size:medium;font-style:normal;font-variant:normal;font-weight:normal;font-stretch:normal;text-indent:0;text-align:start;text-decoration:none;line-height:normal;letter-spacing:normal;word-spacing:normal;text-transform:none;direction:ltr;block-progression:tb;writing-mode:lr-tb;text-anchor:start;baseline-shift:baseline;color:#000000;fill:#68c4dd;fill-opacity:1;stroke:none;stroke-width:6;marker:none;visibility:visible;display:inline;overflow:visible;enable-background:accumulate;font-family:Sans;-inkscape-font-specification:Sans"
       d="m 425.8672,489.81663 c -2.37379,-0.22675 -2.91475,1.35194 -3.03506,2.71875 -5.62752,52.18243 1.87881,131.49 1.87881,131.49 0.12272,1.5708 2.16866,14.00002 3.1081,25.87286 0.68692,-12.87588 1.62566,-27.92753 1.50294,-29.49833 0,0 -4.23749,-75.12371 0.23652,-125.85057 -0.79248,-3.05307 -1.89897,-4.93357 -3.69131,-4.73271 z"
       id="path3858"
       inkscape:connector-curvature="0"
       sodipodi:nodetypes="ccccccc" />
    <path
       style="font-size:medium;font-style:normal;font-variant:normal;font-weight:normal;font-stretch:normal;text-indent:0;text-align:start;text-decoration:none;line-height:normal;letter-spacing:normal;word-spacing:normal;text-transform:none;direction:ltr;block-progression:tb;writing-mode:lr-tb;text-anchor:start;baseline-shift:baseline;color:#000000;fill:#010000;fill-opacity:1;stroke:none;stroke-width:2.9000001;marker:none;visibility:visible;display:inline;overflow:visible;enable-background:accumulate;font-family:Sans;-inkscape-font-specification:Sans"
       d="m 431.71095,501.97288 c -0.76145,0.0226 -1.43277,0.73867 -1.40625,1.5 0.72945,78.04766 1.32818,126.9629 0.72321,153.74107 -0.12459,0.81282 0.13334,8.61594 0.59832,12.38381 1.35783,-3.9107 2.00869,-12.57527 1.91954,-13.39274 0.60823,-26.92241 0.39463,-74.71893 -0.33482,-152.76339 0.0105,-0.78238 -0.71802,-1.49572 -1.5,-1.46875 z"
       id="path3862"
       inkscape:connector-curvature="0"
       sodipodi:nodetypes="ccccccc" />
    <path
       style="fill:none;stroke:#010000;stroke-width:4.30000019;stroke-linecap:round;stroke-linejoin:miter;stroke-miterlimit:4;stroke-opacity:1;stroke-dasharray:none"
       d="m 353.4691,558.51035 c 5.80357,-2.14286 27.34501,0.92349 37.88072,-0.50508"
       id="path3866"
       inkscape:connector-curvature="0"
       sodipodi:nodetypes="cc" />
    <path
       style="font-size:medium;font-style:normal;font-variant:normal;font-weight:normal;font-stretch:normal;text-indent:0;text-align:start;text-decoration:none;line-height:normal;letter-spacing:normal;word-spacing:normal;text-transform:none;direction:ltr;block-progression:tb;writing-mode:lr-tb;text-anchor:start;baseline-shift:baseline;color:#000000;fill:#010000;fill-opacity:1;stroke:none;stroke-width:4.30000019;marker:none;visibility:visible;display:inline;overflow:visible;enable-background:accumulate;font-family:Sans;-inkscape-font-specification:Sans"
       d="m 388.23774,551.99967 c -0.75218,-0.4133 -1.76406,-0.52118 -3.24835,-0.70635 0.0336,3.16305 1.30629,3.67043 1.93585,4.23313 4.16721,3.79955 4.79967,9.9587 6.25446,20.88393 1.45479,10.92523 1.61437,24.16435 1.1875,37.40625 -0.42687,13.2419 -1.43219,26.49375 -2.25,37.5 -0.81781,11.00625 -0.20947,14.6646 0.13839,19.32589 0.0818,1.12901 0.24599,2.21574 1.01786,6.95536 0.5933,-4.36753 0.9211,-6.0942 0.83929,-7.22321 0.25222,-2.99517 1.46823,-7.74383 2.28571,-18.74554 0.81748,-11.00171 1.81914,-24.32169 2.25,-37.6875 0.43086,-13.36581 0.29048,-26.75969 -1.21875,-38.09375 -1.50923,-11.33406 -0.76137,-16.57346 -6.42411,-21.73661 -0.41386,-0.39521 -2.48577,-1.95661 -2.76785,-2.1116 z"
       id="path3868"
       inkscape:connector-curvature="0"
       sodipodi:nodetypes="sccssscccssscs" />
    <path
       style="font-size:medium;font-style:normal;font-variant:normal;font-weight:normal;font-stretch:normal;text-indent:0;text-align:start;text-decoration:none;line-height:normal;letter-spacing:normal;word-spacing:normal;text-transform:none;direction:ltr;block-progression:tb;writing-mode:lr-tb;text-anchor:start;baseline-shift:baseline;color:#000000;fill:#010000;fill-opacity:1;stroke:none;stroke-width:6;marker:none;visibility:visible;display:inline;overflow:visible;enable-background:accumulate;font-family:Sans;-inkscape-font-specification:Sans"
       d="m 374.21095,404.03538 c -1.57094,-0.0984 -3.08978,1.24152 -3.18796,2.81247 -0.0982,1.57095 1.24199,3.08959 2.81296,3.18753 -1.10871,-0.12576 -0.3531,-0.12016 0.40625,0.59375 0.75935,0.71391 1.84589,1.88535 3.09375,3.40625 2.49572,3.04181 5.7523,7.51353 9.5,12.90625 7.49539,10.78545 16.95627,25.38638 26.6875,40.65625 19.46246,30.53975 35.79763,53.92311 44.08439,65.34042 0.92448,1.27627 4.18954,6.20517 8.24373,10.33145 -2.19612,-6.60658 -5.03277,-9.30344 -5.95725,-10.57971 -7.78467,-10.72555 -21.81234,-37.74973 -41.30837,-68.34216 -9.74802,-15.29622 -19.22134,-29.9205 -26.8125,-40.84375 -3.79558,-5.46162 -7.12743,-9.9774 -9.8125,-13.25 -1.34254,-1.6363 -2.51136,-2.95114 -3.59375,-3.96875 -1.08239,-1.01761 -1.74732,-1.98095 -3.84375,-2.21875 -0.10353,-0.0158 -0.20788,-0.0263 -0.3125,-0.0312 z"
       id="path3828"
       inkscape:connector-curvature="0"
       sodipodi:nodetypes="cscsssscccssssccc" />
    <path
       style="font-size:medium;font-style:normal;font-variant:normal;font-weight:normal;font-stretch:normal;text-indent:0;text-align:start;text-decoration:none;line-height:normal;letter-spacing:normal;word-spacing:normal;text-transform:none;direction:ltr;block-progression:tb;writing-mode:lr-tb;text-anchor:start;baseline-shift:baseline;color:#000000;fill:#010000;fill-opacity:1;stroke:none;stroke-width:2.20000005;marker:none;visibility:visible;display:inline;overflow:visible;enable-background:accumulate;font-family:Sans;-inkscape-font-specification:Sans"
       d="m 325.02345,500.06663 c -0.53975,0.0493 -0.99912,0.55175 -1,1.09375 l -1.96685,156.78157 c 0.11766,4.62175 0.19694,4.02183 0.58869,7.69181 0.70742,-3.33796 1.05412,-4.86975 1.37753,-7.15554 l 2.18813,-157.28664 c 0.0159,-0.61456 -0.57469,-1.17404 -1.1875,-1.125 z"
       id="path3838"
       inkscape:connector-curvature="0"
       sodipodi:nodetypes="cccccccc" />
    <path
       style="font-size:medium;font-style:normal;font-variant:normal;font-weight:normal;font-stretch:normal;text-indent:0;text-align:start;text-decoration:none;line-height:normal;letter-spacing:normal;word-spacing:normal;text-transform:none;direction:ltr;block-progression:tb;writing-mode:lr-tb;text-anchor:start;baseline-shift:baseline;color:#000000;fill:#010000;fill-opacity:1;stroke:none;stroke-width:2.4000001;marker:none;visibility:visible;display:inline;overflow:visible;enable-background:accumulate;font-family:Sans;-inkscape-font-specification:Sans"
       d="m 351.77345,556.50413 c -0.62127,0.083 -1.11178,0.72215 -1.03125,1.34375 1.22897,12.1141 2.68166,61.0148 1.40625,86.20536 -0.37195,7.34644 0.10652,6.79124 0.55801,9.52709 0.9872,-3.51415 1.70129,-9.12475 1.75895,-9.75477 2.3428,-25.59655 -0.0772,-73.69892 -1.34821,-86.22768 -0.0523,-0.64312 -0.7034,-1.17309 -1.34375,-1.09375 z"
       id="path3937"
       inkscape:connector-curvature="0"
       sodipodi:nodetypes="ccscscc" />
    <path
       style="font-size:medium;font-style:normal;font-variant:normal;font-weight:normal;font-stretch:normal;text-indent:0;text-align:start;text-decoration:none;line-height:normal;letter-spacing:normal;word-spacing:normal;text-transform:none;direction:ltr;block-progression:tb;writing-mode:lr-tb;text-anchor:start;baseline-shift:baseline;color:#000000;fill:#010000;fill-opacity:1;stroke:none;stroke-width:2.29999995;marker:none;visibility:visible;display:inline;overflow:visible;enable-background:accumulate;font-family:Sans;-inkscape-font-specification:Sans"
       d="m 351.33595,551.53538 c -1.06867,5.29869 -1.10044,12.71149 -1.09438,13.27808 -0.12696,8.6334 0.11573,18.7669 0.0319,41.53442 -0.0838,22.76752 -1.07641,40.98087 -1.05615,52.0487 -0.099,0.60897 -0.31235,2.32387 0.36312,5.80863 0.86488,-5.98542 0.85613,-8.25872 0.90797,-8.87351 1.28294,-10.77672 2.01366,-26.1973 2.09756,-48.98382 0.0839,-22.78652 -0.44125,-32.14323 -0.31567,-40.68242 0.0236,-0.6493 -0.42925,-7.9429 -0.93433,-14.13008 z"
       id="path3864"
       inkscape:connector-curvature="0"
       sodipodi:nodetypes="ccscccsccc" />
  </g>
</svg>
