<?xml version="1.0" encoding="UTF-8" standalone="no"?>
<!-- Created with Inkscape (http://www.inkscape.org/) -->

<svg
   xmlns:dc="http://purl.org/dc/elements/1.1/"
   xmlns:cc="http://creativecommons.org/ns#"
   xmlns:rdf="http://www.w3.org/1999/02/22-rdf-syntax-ns#"
   xmlns:svg="http://www.w3.org/2000/svg"
   xmlns="http://www.w3.org/2000/svg"
   xmlns:sodipodi="http://sodipodi.sourceforge.net/DTD/sodipodi-0.dtd"
   xmlns:inkscape="http://www.inkscape.org/namespaces/inkscape"
   width="876.23145"
   height="144.82082"
   id="svg2"
   version="1.1"
   inkscape:version="0.48.4 r9939"
   sodipodi:docname="banner.svg">
  <defs
     id="defs4">
    <filter
       id="filter3007"
       inkscape:label="Air spray"
       inkscape:menu="Scatter"
       inkscape:menu-tooltip="Convert to small scattered particles with some thickness"
       width="2"
       height="2"
       y="-0.5"
       x="-0.5"
       color-interpolation-filters="sRGB">
      <feGaussianBlur
         id="feGaussianBlur3009"
         stdDeviation="0.01"
         result="result1" />
      <feBlend
         id="feBlend3011"
         in2="result1"
         result="fbSourceGraphic"
         mode="multiply" />
      <feTurbulence
         id="feTurbulence3013"
         baseFrequency="0.8"
         type="fractalNoise"
         seed="0"
         numOctaves="3"
         result="result3" />
      <feDisplacementMap
         id="feDisplacementMap3015"
         in2="result3"
         in="fbSourceGraphic"
         xChannelSelector="R"
         yChannelSelector="G"
         scale="50"
         result="result2" />
      <feMorphology
         id="feMorphology3017"
         radius="1"
         operator="dilate"
         result="result4" />
      <feBlend
         id="feBlend3019"
         in2="result2"
         mode="screen" />
    </filter>
    <filter
       id="filter3923"
       inkscape:label="Fuzzy Glow"
       inkscape:menu="Shadows and Glows"
       inkscape:menu-tooltip="Overlays a semi-transparent shifted copy to a blurred one"
       color-interpolation-filters="sRGB">
      <feOffset
         id="feOffset3925"
         dx="4"
         dy="4"
         result="result11"
         in="SourceGraphic" />
      <feGaussianBlur
         id="feGaussianBlur3927"
         stdDeviation="4"
         result="result8" />
      <feComposite
         id="feComposite3929"
         in2="result8"
         result="result9"
         in="SourceGraphic"
         operator="in" />
      <feBlend
         id="feBlend3931"
         in2="result8"
         in="result9"
         mode="darken" />
    </filter>
    <filter
       inkscape:collect="always"
       id="filter3981"
       color-interpolation-filters="sRGB">
      <feGaussianBlur
         inkscape:collect="always"
         stdDeviation="0.6790236"
         id="feGaussianBlur3983" />
    </filter>
    <filter
       inkscape:collect="always"
       id="filter4021"
       inkscape:label="Torn edges"
       inkscape:menu="Distort"
       inkscape:menu-tooltip="Displace the outside of shapes and pictures without altering their content"
       height="1.4"
       y="-0.2"
       width="1.4"
       x="-0.2"
       color-interpolation-filters="sRGB">
      <feGaussianBlur
         inkscape:collect="always"
         stdDeviation="0.94351962"
         id="feGaussianBlur4023"
         result="fbSourceGraphic" />
      <feColorMatrix
         result="fbSourceGraphicAlpha"
         in="fbSourceGraphic"
         values="0 0 0 -1 0 0 0 0 -1 0 0 0 0 -1 0 0 0 0 1 0"
         id="feColorMatrix4025" />
      <feTurbulence
         id="feTurbulence4027"
         baseFrequency="0.05"
         numOctaves="5"
         type="fractalNoise"
         result="result91" />
      <feDisplacementMap
         id="feDisplacementMap4029"
         in2="result91"
         scale="25"
         result="result5"
         xChannelSelector="R"
         in="fbSourceGraphic"
         yChannelSelector="A" />
      <feComposite
         id="feComposite4031"
         in2="result5"
         in="fbSourceGraphic"
         operator="atop" />
    </filter>
  </defs>
  <sodipodi:namedview
     id="base"
     pagecolor="#ffffff"
     bordercolor="#666666"
     borderopacity="1.0"
     inkscape:pageopacity="0.0"
     inkscape:pageshadow="2"
     inkscape:zoom="0.7"
     inkscape:cx="720.40403"
     inkscape:cy="-18.824051"
     inkscape:document-units="px"
     inkscape:current-layer="layer1"
     showgrid="false"
     inkscape:window-width="1366"
     inkscape:window-height="744"
     inkscape:window-x="0"
     inkscape:window-y="24"
     inkscape:window-maximized="1"
     fit-margin-top="0.1"
     fit-margin-right="0.1"
     fit-margin-bottom="0.1"
     fit-margin-left="0.1">
    <sodipodi:guide
       position="81.652622,-847.12803"
       orientation="0,744.09448"
       id="guide4045" />
    <sodipodi:guide
       position="825.7471,-847.12803"
       orientation="-1052.3622,0"
       id="guide4047" />
    <sodipodi:guide
       position="825.7471,205.23417"
       orientation="0,-744.09448"
       id="guide4049" />
    <sodipodi:guide
       position="81.652622,205.23417"
       orientation="1052.3622,0"
       id="guide4051" />
    <sodipodi:guide
       position="81.652622,-847.12803"
       orientation="0,744.09448"
       id="guide4053" />
    <sodipodi:guide
       position="825.7471,-847.12803"
       orientation="-1052.3622,0"
       id="guide4055" />
    <sodipodi:guide
       position="825.7471,205.23417"
       orientation="0,-744.09448"
       id="guide4057" />
    <sodipodi:guide
       position="81.652622,205.23417"
       orientation="1052.3622,0"
       id="guide4059" />
  </sodipodi:namedview>
  <metadata
     id="metadata7">
    <rdf:RDF>
      <cc:Work
         rdf:about="">
        <dc:format>image/svg+xml</dc:format>
        <dc:type
           rdf:resource="http://purl.org/dc/dcmitype/StillImage" />
        <dc:title />
      </cc:Work>
    </rdf:RDF>
  </metadata>
  <g
     inkscape:label="Layer 1"
     inkscape:groupmode="layer"
     id="layer1"
     transform="translate(81.652622,-60.413334)">
    <g
       id="g4061"
       transform="translate(61.428571,-560)">
      <path
         transform="matrix(1.0562534,0,0,1.1371159,0.33551089,-90.997398)"
         inkscape:connector-curvature="0"
         id="path3921"
         d="m -52.857143,657.36218 c 0,1.90476 0,3.80953 0,5.71429 0,0.23809 0.168359,0.54593 0,0.71428 -0.168359,0.16836 -0.545927,-0.16835 -0.714286,0 -0.168358,0.16836 0,0.47619 0,0.71429 -0.238095,0 -0.501326,-0.10648 -0.714285,0 -0.30117,0.15058 -0.413117,0.5637 -0.714286,0.71429 -0.212959,0.10647 -0.47619,0 -0.714286,0 -0.238095,0 -0.501327,0.10647 -0.714285,0 -1.579325,-0.78967 -0.221659,-0.44332 -0.714286,-1.42858 -0.150585,-0.30117 -0.563701,-0.41311 -0.714286,-0.71428 -0.108691,-0.21738 0,-1.82117 0,-2.14286 0,-0.37351 0.09391,-2.66933 0,-2.85714 -0.150585,-0.30117 -0.563701,-0.41312 -0.714286,-0.71429 -0.212958,-0.42592 0.212959,-1.00265 0,-1.42857 -0.150584,-0.30117 -0.47619,-0.47619 -0.714285,-0.71428 -0.882645,-0.88265 -0.377568,-0.71429 -1.428572,-0.71429 -0.238095,0 -0.501327,-0.10648 -0.714285,0 -0.602339,0.30117 -0.826233,1.1274 -1.428572,1.42857 -0.212959,0.10648 -0.545927,-0.16836 -0.714286,0 -0.168358,0.16836 0.10648,0.50133 0,0.71429 -0.150584,0.30117 -0.563701,0.41311 -0.714285,0.71428 -0.212959,0.42592 0.212959,1.00266 0,1.42857 -0.150585,0.30117 -0.563701,0.41312 -0.714286,0.71429 -0.129155,0.25831 0,3.07461 0,3.57143 0,2.61905 0,5.23809 0,7.85714 0,0.50629 0.09234,4.10104 0,4.28572 -0.150585,0.30116 -0.563701,0.41311 -0.714286,0.71428 -0.212959,0.42592 0.212959,1.00265 0,1.42857 -0.150584,0.30117 -0.563701,0.41312 -0.714285,0.71429 -0.10648,0.21296 0.106479,0.50133 0,0.71428 -0.30117,0.60234 -1.127403,0.82624 -1.428572,1.42858 -0.106479,0.21295 0.10648,0.50132 0,0.71428 -0.150585,0.30117 -0.563701,0.41312 -0.714286,0.71429 -0.224472,0.44894 0.224473,2.4082 0,2.85714 -0.150584,0.30117 -0.563701,0.41312 -0.714285,0.71429 -0.10648,0.21295 0,0.47619 0,0.71428 0,0.2381 0,0.47619 0,0.71429 0,0.17323 0.02297,2.11988 0,2.14285 -0.168359,0.16836 -0.545927,-0.16835 -0.714286,0 -0.168359,0.16836 0,0.47619 0,0.71429 0,0.50629 0.09234,4.10104 0,4.28571 -0.150585,0.30117 -0.563701,0.41312 -0.714286,0.71429 -0.09391,0.18782 0,2.48363 0,2.85714 0,2.38095 0,4.76191 0,7.14286 0,0.17323 -0.02297,2.11989 0,2.14286 0.168359,0.16836 0.545927,-0.16836 0.714286,0 0.168359,0.16836 -0.168359,0.54592 0,0.71428 0.168359,0.16836 0.545927,-0.16836 0.714286,0 0.168358,0.16836 -0.10648,0.50133 0,0.71429 0.301169,0.60234 1.127402,0.82623 1.428571,1.42857 0.492628,0.98525 -0.865039,0.63891 0.714286,1.42857 0.212959,0.10648 0.501327,-0.10648 0.714286,0 0.301169,0.15059 0.413116,0.5637 0.714285,0.71429 0.25831,0.12915 3.074615,0 3.571429,0 0.321684,0 1.925476,0.10869 2.142857,0 0.301169,-0.15059 0.413116,-0.5637 0.714286,-0.71429 0.212959,-0.10648 0.501327,0.10648 0.714285,0 0.30117,-0.15058 0.413117,-0.5637 0.714286,-0.71428 0.212959,-0.10648 0.545927,0.16835 0.714286,0 0.168359,-0.16836 -0.10648,-0.50133 0,-0.71429 0.150585,-0.30117 0.563701,-0.41312 0.714286,-0.71429 0.106479,-0.21295 0,-0.47619 0,-0.71428 0,-0.2381 0,-0.47619 0,-0.71429 0,-1.19047 0,-2.38095 0,-3.57143 0,-1.67512 -0.168359,0.33672 0.714285,-1.42857 0.10648,-0.21296 0,-0.47619 0,-0.71428 0,-0.2381 0,-0.47619 0,-0.71429 0,-1.19048 0,-2.38095 0,-3.57143 0,-0.23809 0,-0.47619 0,-0.71428 0,-0.2381 -0.106479,-0.50133 0,-0.71429 0.150585,-0.30117 0.563701,-0.41312 0.714286,-0.71428 0.224472,-0.44895 -0.224472,-2.4082 0,-2.85715 0.150585,-0.30117 0.563701,-0.41311 0.714286,-0.71428 0.106479,-0.21296 -0.10648,-0.50133 0,-0.71429 0.428571,-0.85714 1.714285,-1.28571 2.142857,-2.14286 0.212959,-0.42591 -0.336718,-1.09185 0,-1.42857 0.168359,-0.16836 0.501327,0.10648 0.714286,0 0.602338,-0.30117 0.826232,-1.1274 1.428571,-1.42857 0.212959,-0.10648 0.545927,0.16836 0.714286,0 0.168358,-0.16836 -0.168359,-0.54593 0,-0.71428 0.168358,-0.16836 0.501327,0.10647 0.714285,0 0.30117,-0.15059 0.413117,-0.56371 0.714286,-0.71429 0.212959,-0.10648 0.545927,0.16836 0.714286,0 0.168359,-0.16836 -0.168359,-0.54593 0,-0.71429 0.336717,-0.33671 1.002654,0.21296 1.428571,0 0.30117,-0.15058 0.413117,-0.5637 0.714286,-0.71428 0.571429,-0.28572 1.571429,0.28571 2.142857,0 0.301169,-0.15059 0.413117,-0.5637 0.714286,-0.71429 0.07972,-0.0399 3.491703,-0.0399 3.571428,0 0.30117,0.15059 0.413117,0.5637 0.714286,0.71429 0.448945,0.22447 2.408199,-0.22447 2.857143,0 0.301169,0.15058 0.413116,0.5637 0.714286,0.71428 0.425917,0.21296 1.002653,-0.21295 1.428571,0 0.857143,0.42858 1.285714,1.71429 2.142857,2.14286 0.212959,0.10648 0.501327,-0.10648 0.714286,0 0.301169,0.15059 0.413116,0.5637 0.714286,0.71429 0.212959,0.10648 0.501327,-0.10648 0.714285,0 0.702878,0.35144 2.154266,2.5057 2.857143,2.85714 0.425918,0.21296 1.002654,-0.21296 1.428572,0 0.602338,0.30117 0.826233,1.1274 1.428571,1.42857 0.212959,0.10648 0.501327,-0.10648 0.714286,0 0.301169,0.15059 0.413116,0.5637 0.714286,0.71429 0.212958,0.10648 0.501326,-0.10648 0.714285,0 0.30117,0.15058 0.413117,0.5637 0.714286,0.71428 0.212959,0.10648 0.501327,-0.10648 0.714286,0 0.301169,0.15059 0.413116,0.5637 0.714285,0.71429 0.212959,0.10648 0.501327,-0.10648 0.714286,0 0.602339,0.30117 0.826233,1.1274 1.428572,1.42857 0.212958,0.10648 0.501326,-0.10648 0.714285,0 0.30117,0.15058 0.413117,0.5637 0.714286,0.71429 0.07972,0.0399 3.491703,0.0399 3.571429,0 0.301169,-0.15059 0.413116,-0.56371 0.714285,-0.71429 0.9852553,-0.49263 0.638909,0.86504 1.4285717,-0.71429 0.1064794,-0.21295 -0.1683587,-0.54592 0,-0.71428 0.1683588,-0.16836 0.5013269,0.10648 0.7142857,0 0.6023386,-0.30117 0.8262329,-1.1274 1.4285715,-1.42857 0.2129588,-0.10648 0.5013268,0.10648 0.7142857,0 0.6023386,-0.30117 0.8262328,-1.12741 1.4285714,-1.42857 0.2129589,-0.10648 0.5013269,0.10647 0.7142857,0 0.3011693,-0.15059 0.4131164,-0.56371 0.7142857,-0.71429 0.2129589,-0.10648 0.545927,0.16836 0.7142857,0 0.1683588,-0.16836 -0.1683587,-0.54593 0,-0.71429 0.1683588,-0.16835 0.5013269,0.10648 0.7142858,0 0.8571428,-0.42857 1.28571424,-1.71428 2.1428571,-2.14285 0.42591771,-0.21296 1.0918539,0.33671 1.4285714,0 1.4778826,-1.47789 -2.2584003,0.0578 0.7142857,-1.42857 0.4259178,-0.21296 1.0026538,0.21295 1.4285715,0 0.3011693,-0.15059 0.4131164,-0.56371 0.7142857,-0.71429 0.2129588,-0.10648 0.4761905,0 0.7142857,0 0.2380952,0 0.4761905,0 0.7142857,0 0.3367842,0 3.5390559,-0.0324 3.5714286,0 0.1683587,0.16836 -0.1064794,0.50133 0,0.71429 0.1505846,0.30116 0.4761905,0.47619 0.7142857,0.71428 0.238095,0.2381 0.47619,0.47619 0.714286,0.71429 0.376046,0.37604 1.952113,1.76137 2.142857,2.14285 0.106479,0.21296 -0.10648,0.50133 0,0.71429 0.150585,0.30117 0.563701,0.41312 0.714286,0.71429 0.24669,0.49338 -0.250729,3.3207 0,3.57142 0.168358,0.16836 0.47619,0 0.714285,0 0.238096,0 0.488409,0.0753 0.714286,0 1.010153,-0.33671 1.868506,-1.03311 2.857143,-1.42857 0.699072,-0.27963 1.443785,-0.43465 2.142857,-0.71428 0.988637,-0.39546 1.904762,-0.95238 2.857143,-1.42857 0.47619,-0.2381 0.98559,-0.41897 1.428571,-0.71429 0.280166,-0.18678 0.413117,-0.5637 0.714286,-0.71429 0.212959,-0.10648 0.545927,0.16836 0.714286,0 0.168358,-0.16835 -0.168359,-0.54592 0,-0.71428 0.168358,-0.16836 0.501327,0.10648 0.714285,0 0.857143,-0.42857 1.285715,-1.71429 2.142858,-2.14286 0.212958,-0.10648 0.545927,0.16836 0.714285,0 0.168359,-0.16836 -0.168358,-0.54593 0,-0.71428 0.168359,-0.16836 0.476191,0 0.714286,0 0.496814,0 3.313119,-0.12916 3.571429,0 0.301169,0.15058 0.413116,0.5637 0.714285,0.71428 0.212959,0.10648 0.501327,-0.10648 0.714286,0 0.602339,0.30117 0.826233,1.1274 1.428571,1.42857 0.212959,0.10648 0.501327,-0.10648 0.714286,0 0.301169,0.15059 0.413117,0.5637 0.714286,0.71429 0.212959,0.10648 0.501327,-0.10648 0.714286,0 1.146268,0.57313 0.282302,0.85544 1.428571,1.42857 0.212959,0.10648 0.501327,-0.10648 0.714286,0 0.857143,0.42857 1.285714,1.71429 2.142857,2.14286 0.212959,0.10648 0.501327,-0.10648 0.714286,0 0.301169,0.15058 0.47619,0.47619 0.714285,0.71428 0.238096,0.2381 0.476191,0.47619 0.714286,0.71429 0.238095,0.23809 0.47619,0.47619 0.714286,0.71428 0.238095,0.2381 0.413116,0.56371 0.714285,0.71429 0.212959,0.10648 0.501327,-0.10648 0.714286,0 0.857143,0.42857 1.285714,1.71429 2.142857,2.14286 0.07973,0.0399 3.491703,0.0399 3.571429,0 0.580795,-0.2904 0.591008,-1.13307 1.428571,-0.71429 0.30117,0.15059 0.413117,0.5637 0.714286,0.71429 0.212959,0.10648 0.545927,-0.16836 0.714286,0 0.168358,0.16836 0,0.47619 0,0.71428 0,0.2381 0,0.47619 0,0.71429 0,0.26231 0.02874,2.8284 0,2.85714 -0.168359,0.16836 -0.501327,-0.10648 -0.714286,0 -0.189651,0.0948 -2.048032,1.95321 -2.142857,2.14286 -0.10648,0.21296 0.106479,0.50133 0,0.71428 -0.351439,0.70288 -2.505704,2.15427 -2.857143,2.85715 -0.106479,0.21296 0.106479,0.50132 0,0.71428 -0.595408,1.19082 -1.428571,0.32274 -1.428571,2.14286 0,0.23809 -0.168359,0.54593 0,0.71429 0.168358,0.16835 0.47619,0 0.714285,0 0.476191,0 0.976818,0.15058 1.428572,0 1.010152,-0.33672 1.82414,-1.17033 2.857143,-1.42858 0.347994,-0.087 2.479448,0.18885 2.857142,0 0.30117,-0.15058 0.413117,-0.5637 0.714286,-0.71428 0.212959,-0.10648 0.545927,0.16836 0.714286,0 0.02874,-0.0287 0,-2.59483 0,-2.85714 0,-3.09524 0,-6.19048 0,-9.28572 0,-0.50629 -0.09234,-4.10103 0,-4.28571 0.150585,-0.30117 0.47619,-0.47619 0.714286,-0.71429 0.238095,-0.23809 0.413116,-0.5637 0.714285,-0.71428 0.212959,-0.10648 0.501327,0.10647 0.714286,0 0.301169,-0.15059 0.413116,-0.56371 0.714286,-0.71429 0.06089,-0.0304 2.796252,-0.0304 2.857143,0 0.301169,0.15058 0.413116,0.5637 0.714285,0.71429 0.425918,0.21295 1.091854,-0.33672 1.428572,0 0.168358,0.16835 -0.168359,0.54592 0,0.71428 0.336717,0.33672 1.091854,-0.33672 1.428571,0 0.376462,0.37646 0.418965,0.98559 0.714286,1.42857 0.186777,0.28017 0.607806,0.39485 0.714286,0.71429 0.150584,0.45175 -0.115494,0.9666 0,1.42857 0.129125,0.5165 0.58516,0.91207 0.714285,1.42857 0.115493,0.46197 0,0.95238 0,1.42857 0,1.19048 0,2.38095 0,3.57143 0,1.66667 0,3.33333 0,5 0,0.2381 -0.168358,0.54593 0,0.71429 0.168359,0.16836 0.476191,0 0.714286,0 0.238095,0 0.501327,0.10648 0.714286,0 0.45498,-0.22749 3.010166,-3.01017 3.571428,-3.57143 0.238096,-0.2381 0.476191,-0.47619 0.714286,-0.71429 0.238095,-0.23809 0.413116,-0.5637 0.714286,-0.71428 0.212959,-0.10648 0.501327,0.10648 0.714285,0 0.602339,-0.30117 0.826233,-1.12741 1.428572,-1.42857 0.212959,-0.10648 0.545927,0.16835 0.714286,0 0.02297,-0.023 0,-1.96963 0,-2.14286 0,-0.37352 0.09391,-2.66933 0,-2.85714 -0.150585,-0.30117 -0.563701,-0.41312 -0.714286,-0.71429 -0.10648,-0.21296 0.106479,-0.50133 0,-0.71429 -0.150585,-0.30117 -0.476191,-0.47619 -0.714286,-0.71428 -0.238095,-0.2381 -0.47619,-0.47619 -0.714286,-0.71429 -0.952381,-0.95238 -1.904761,-1.90476 -2.857142,-2.85714 -0.238096,-0.2381 -0.476191,-0.47619 -0.714286,-0.71429 -0.238095,-0.23809 -0.563701,-0.41311 -0.714286,-0.71428 -0.212959,-0.42592 0.212959,-1.00266 0,-1.42857 -0.150585,-0.30117 -0.563701,-0.41312 -0.714286,-0.71429 -0.106479,-0.21296 0,-0.47619 0,-0.71428 0,-0.2381 0,-0.4762 0,-0.71429 0,-0.2381 -0.106479,-0.50133 0,-0.71429 0.190745,-0.38148 1.766812,-1.76681 2.142858,-2.14285 0.238095,-0.2381 0.47619,-0.47619 0.714285,-0.71429 0.238096,-0.23809 0.413117,-0.5637 0.714286,-0.71428 0.184679,-0.0923 3.779427,0 4.285714,0 0.238096,0 0.545927,-0.16836 0.714286,0 0.168359,0.16835 -0.168359,0.54592 0,0.71428 0.168359,0.16836 0.501327,-0.10648 0.714286,0 0.18965,0.0948 2.048032,1.95321 2.142857,2.14286 0.106479,0.21296 -0.10648,0.50133 0,0.71428 0.301169,0.60234 1.127402,0.82624 1.428571,1.42858 0.10648,0.21295 -0.106479,0.50132 0,0.71428 0.150585,0.30117 0.563701,0.41312 0.714286,0.71429 0.09664,0.19328 0,3.97803 0,4.28571 0,2.61905 0,5.2381 0,7.85714 0,0.49682 -0.129155,3.31312 0,3.57143 0.150585,0.30117 0.563701,0.41312 0.714286,0.71429 0.106479,0.21296 -0.10648,0.50133 0,0.71428 0.150584,0.30117 0.563701,0.41312 0.714285,0.71429 0.212959,0.42592 -0.212958,1.00265 0,1.42857 0.150585,0.30117 0.563701,0.41312 0.714286,0.71429 0.212959,0.42591 -0.336717,1.09185 0,1.42857 0.100733,0.10073 1.996337,0.0733 2.142857,0 0.30117,-0.15059 0.476191,-0.47619 0.714286,-0.71429 0.47619,-0.47619 1.055017,-0.86824 1.428571,-1.42857 0.590642,-0.88596 0.83793,-1.97118 1.428572,-2.85714 0.186777,-0.28017 0.527508,-0.43412 0.714286,-0.71429 0.29532,-0.44298 0.418964,-0.98559 0.714285,-1.42857 0.373555,-0.56033 1.127402,-0.82623 1.428572,-1.42857 0.106479,-0.21296 -0.168359,-0.54593 0,-0.71429 0.525501,-0.5255 1.289098,0.57482 1.428571,0.71429 0.376046,0.37605 1.952113,1.76137 2.142857,2.14286 0.10648,0.21296 -0.106479,0.50132 0,0.71428 0.150585,0.30117 0.563701,0.41312 0.714286,0.71429 0.21296,0.42592 -0.212959,1.00265 0,1.42857 0.15058,0.30117 0.5637,0.41312 0.71429,0.71429 0.10648,0.21295 -0.16836,0.54592 0,0.71428 0.0287,0.0287 2.59483,0 2.85714,0 1.42857,0 2.85714,0 4.28571,0 0.2381,0 0.54593,0.16836 0.71429,0 0.16836,-0.16836 -0.16836,-0.54593 0,-0.71428 0.16836,-0.16836 0.47619,0 0.71428,0 0.2381,0 0.47619,0 0.71429,0 1.66667,0 3.33333,0 5,0 0.71429,0 1.46523,-0.22588 2.14286,0 2.64793,0.88264 -0.87068,0.71428 1.42857,0.71428 0.32168,0 1.92547,-0.10869 2.14286,0 0.30117,0.15059 0.41311,0.5637 0.71428,0.71429 0.21296,0.10648 0.47619,0 0.71429,0 0.23809,0 0.50132,0.10648 0.71428,0 0.30117,-0.15059 0.47619,-0.47619 0.71429,-0.71429 0.95238,-0.95238 1.90476,-1.90476 2.85714,-2.85714 0.2381,-0.2381 0.47619,-0.47619 0.71429,-0.71429 0.23809,-0.23809 0.41311,-0.5637 0.71428,-0.71428 0.21296,-0.10648 0.54593,0.16836 0.71429,0 0.16836,-0.16836 -0.16836,-0.54593 0,-0.71429 0.33672,-0.33672 1.00265,0.21296 1.42857,0 0.30117,-0.15058 0.41312,-0.5637 0.71429,-0.71428 0.42591,-0.21296 1.00265,0.21295 1.42857,0 0.30117,-0.15059 0.41311,-0.56371 0.71428,-0.71429 0.57143,-0.28571 1.57143,0.28571 2.14286,0 0.30117,-0.15058 0.41312,-0.5637 0.71429,-0.71429 0.21295,-0.10648 0.54592,0.16836 0.71428,0 0.16836,-0.16835 -0.23809,-0.71428 0,-0.71428 0.2381,0 0,0.95238 0,0.71428 0,-0.47619 0,-0.95238 0,-1.42857 0,-0.23809 -0.16836,-0.54592 0,-0.71428 0.16836,-0.16836 0.47619,0 0.71429,0 1.42857,0 2.85714,0 4.28571,0 0.2381,0 0.50133,-0.10648 0.71429,0 0.30117,0.15058 0.41311,0.5637 0.71428,0.71428 0.21296,0.10648 0.50133,-0.10648 0.71429,0 0.38149,0.19075 1.76681,1.76681 2.14286,2.14286 0.23809,0.23809 0.47619,0.47619 0.71428,0.71429 0.2381,0.23809 0.41312,0.5637 0.71429,0.71428 0.21296,0.10648 0.54592,-0.16836 0.71428,0 0.16836,0.16836 -0.16836,0.54593 0,0.71429 0.19545,0.19544 2.46965,-0.19375 2.85715,0 0.30117,0.15058 0.47619,0.47619 0.71428,0.71428 0.2381,0.2381 0.5637,0.41312 0.71429,0.71429 0.10648,0.21296 -0.10648,0.50133 0,0.71428 0.30117,0.60234 1.1274,0.82624 1.42857,1.42858 0.0923,0.18467 0,3.77942 0,4.28571 0,0.23809 0,0.47619 0,0.71429 0,0.23809 -0.16836,0.54592 0,0.71428 0.10073,0.10073 1.99634,0.0733 2.14286,0 0.30117,-0.15058 0.5637,-0.41312 0.71428,-0.71428 0.10648,-0.21296 -0.16836,-0.54593 0,-0.71429 1.47788,-1.47788 -0.0578,2.2584 1.42857,-0.71429 0.10648,-0.21295 -0.10648,-0.50132 0,-0.71428 0.15059,-0.30117 0.5637,-0.41312 0.71429,-0.71429 0.0939,-0.18781 0,-2.48363 0,-2.85714 0,-0.2381 0,-0.47619 0,-0.71429 0,-0.23809 0.16836,-0.54592 0,-0.71428 -0.16836,-0.16836 -0.54593,0.16836 -0.71429,0 -0.16836,-0.16836 0.16836,-0.54593 0,-0.71429 -0.16836,-0.16836 -0.54592,0.16836 -0.71428,0 -0.16836,-0.16836 0.10648,-0.50132 0,-0.71428 -0.15059,-0.30117 -0.47619,-0.47619 -0.71429,-0.71429 -0.23809,-0.23809 -0.41311,-0.5637 -0.71428,-0.71428 -0.21296,-0.10648 -0.54593,0.16835 -0.71429,0 -1.47788,-1.47789 2.2584,0.0578 -0.71429,-1.42858 -0.42591,-0.21295 -1.00265,0.21296 -1.42857,0 -0.30117,-0.15058 -0.41311,-0.5637 -0.71428,-0.71428 -0.42592,-0.21296 -1.00266,0.21296 -1.42857,0 -0.38149,-0.19075 -1.76682,-1.76681 -2.14286,-2.14286 -0.2381,-0.23809 -0.47619,-0.47619 -0.71429,-0.71428 -0.23809,-0.2381 -0.5637,-0.41312 -0.71428,-0.71429 -0.0939,-0.18782 0,-2.48363 0,-2.85714 0,-0.2381 0,-0.47619 0,-0.71429 0,-0.23809 -0.10648,-0.50133 0,-0.71428 1.48634,-2.97269 -0.0493,0.76359 1.42857,-0.71429 0.16836,-0.16836 -0.16836,-0.54593 0,-0.71429 0.16836,-0.16835 0.50133,-0.10648 0.71428,0 0.13673,0.0684 2.78878,2.72042 2.85715,2.85715 0.10648,0.21296 -0.10648,0.50132 0,0.71428 0.30117,0.60234 1.1274,0.82624 1.42857,1.42857 0.22531,0.45063 -0.22531,3.12081 0,3.57143 0.15058,0.30117 0.5637,0.41312 0.71428,0.71429 0.28572,0.57143 -0.28571,1.57143 0,2.14286 0.15059,0.30116 0.56371,0.41311 0.71429,0.71428 0.1416,0.28321 -0.14603,1.99683 0,2.14286 0.0287,0.0287 2.59483,0 2.85714,0 0.32169,0 1.92548,0.10869 2.14286,0 0.30117,-0.15059 0.41312,-0.5637 0.71429,-0.71429 0.42591,-0.21296 1.00265,0.21296 1.42857,0 0.18965,-0.0948 2.04803,-1.9532 2.14285,-2.14285 0.10648,-0.21296 0,-0.4762 0,-0.71429 0.2381,-0.2381 0.56371,-0.41312 0.71429,-0.71429 0.10648,-0.21295 -0.16836,-0.54592 0,-0.71428 0.16836,-0.16836 0.54593,0.16836 0.71429,0 0.33671,-0.33672 -0.33672,-1.09186 0,-1.42857 0.5255,-0.5255 1.28909,0.57481 1.42857,0.71428 0.23809,0.2381 0.5637,0.41312 0.71428,0.71429 0.10648,0.21296 -0.10648,0.50133 0,0.71428 0.15059,0.30117 0.5637,0.41312 0.71429,0.71429 0.0923,0.18468 0,3.77943 0,4.28571 0,0.32169 0.10869,1.92548 0,2.14286 -0.15059,0.30117 -0.5637,0.41312 -0.71429,0.71429 -0.10869,0.21738 0,1.82117 0,2.14285 0,0.2381 0,0.47619 0,0.71429 0,0.23809 -0.23809,0.71429 0,0.71429 0.33672,0 0.47619,-0.4762 0.71429,-0.71429 0.23809,-0.2381 0.5637,-0.41312 0.71428,-0.71429 0.10648,-0.21295 -0.10648,-0.50132 0,-0.71428 0.15059,-0.30117 0.56371,-0.41312 0.71429,-0.71429 0.0488,-0.0975 0.0488,-4.18816 0,-4.28571 -0.15058,-0.30117 -0.5637,-0.41312 -0.71429,-0.71429 -0.10648,-0.21296 0.16836,-0.54592 0,-0.71428 -0.16835,-0.16836 -0.54592,0.16836 -0.71428,0 -0.16836,-0.16836 0.16836,-0.54593 0,-0.71429 -0.16836,-0.16836 -0.50133,0.10648 -0.71429,0 -0.30117,-0.15058 -0.41311,-0.5637 -0.71428,-0.71428 -0.21296,-0.10648 -0.50133,0.10647 -0.71429,0 -0.30117,-0.15059 -0.47619,-0.4762 -0.71428,-0.71429 -0.2381,-0.2381 -0.56371,-0.41312 -0.71429,-0.71429 -0.10648,-0.21295 0.10648,-0.50132 0,-0.71428 -0.15058,-0.30117 -0.5637,-0.41312 -0.71429,-0.71429 -0.0733,-0.14652 -0.10073,-2.04212 0,-2.14285 0.16836,-0.16836 0.47619,0 0.71429,0 0.2381,0 0.50133,-0.10648 0.71429,0 0.30117,0.15058 0.41311,0.5637 0.71428,0.71428 0.42592,0.21296 1.42857,-0.47619 1.42857,0 0,0.2381 -0.95238,0 -0.71428,0 1.66666,0 3.33333,0 5,0 0.16973,0 2.69705,-0.0801 2.85714,0 0.85714,0.42857 1.28571,1.71429 2.14286,2.14286 1.90476,0 -0.2381,-0.2381 0.71428,0.71428 0.16836,0.16836 0.54593,-0.16835 0.71429,0 0.16836,0.16836 -0.10648,0.50133 0,0.71429 0.0684,0.13673 2.72041,2.78878 2.85714,2.85714 0.21296,0.10648 0.50133,-0.10648 0.71429,0 0.30117,0.15059 0.41311,0.5637 0.71428,0.71429 0.18782,0.0939 2.48363,0 2.85715,0 0.37351,0 2.66932,0.0939 2.85714,0 0.30117,-0.15059 0.47619,-0.47619 0.71428,-0.71429 0.42011,-0.4201 2.52638,-2.69175 2.85715,-2.85714 0.21296,-0.10648 0.54592,0.16836 0.71428,0 0.16836,-0.16836 -0.16836,-0.54593 0,-0.71429 0.16836,-0.16835 0.54593,0.16836 0.71429,0 0.16836,-0.16835 -0.16836,-0.54592 0,-0.71428 0.16836,-0.16836 0.47619,0 0.71428,0 1.42858,0 2.85715,0 4.28572,0 0.23809,0 0.47619,0 0.71428,0 0.2381,0 0.50133,-0.10648 0.71429,0 0.30117,0.15058 0.41312,0.5637 0.71429,0.71428 0.21295,0.10648 0.47619,0 0.71428,0 0.47619,0 0.97682,-0.15058 1.42857,0 0.31944,0.10648 0.41312,0.56371 0.71429,0.71429 0.18781,0.0939 2.48363,0 2.85714,0 3.57143,0 7.14286,0 10.71429,0 0.23809,0 0.47619,0 0.71428,0 0.2381,0 0.54593,-0.16836 0.71429,0 0.16836,0.16836 -0.16836,0.54593 0,0.71429 0.16836,0.16835 0.47619,0 0.71428,0 0.2381,0 0.47619,0 0.71429,0 1.90476,0 3.80952,0 5.71429,0 0.23809,0 0.47619,0 0.71428,0 0.2381,0 0.54593,0.16835 0.71429,0 0.16836,-0.16836 -0.16836,-0.54593 0,-0.71429 0.16836,-0.16836 0.50132,0.10648 0.71428,0 0.30117,-0.15058 0.41312,-0.5637 0.71429,-0.71429 0.0609,-0.0304 2.79625,-0.0304 2.85714,0 1.76529,0.88265 -0.24655,0.71429 1.42857,0.71429 0.26231,0 2.8284,-0.0287 2.85715,0 0.16835,0.16836 -0.16836,0.54593 0,0.71429 0.16835,0.16835 0.71428,-0.2381 0.71428,0 0,0.23809 -0.71428,0.23809 -0.71428,0 0,-0.27895 1.33841,-0.80445 0.71428,-1.42858 -0.023,-0.023 -1.96962,0 -2.14286,0 -3.33333,0 -6.66666,0 -10,0 -0.23809,0 -0.47619,0 -0.71428,0 -0.2381,0 -0.54593,0.16836 -0.71429,0 -0.16836,-0.16835 0.16836,-0.54592 0,-0.71428 -0.16836,-0.16836 -0.50132,0.10648 -0.71428,0 -0.30117,-0.15059 -0.47619,-0.47619 -0.71429,-0.71429 -0.23809,-0.23809 -0.5637,-0.41311 -0.71428,-0.71428 -0.0939,-0.18782 0,-2.48363 0,-2.85715 0,-0.33678 -0.0324,-3.53905 0,-3.57142 0.16835,-0.16836 0.54592,0.16835 0.71428,0 0.35714,-0.35715 -0.35714,-1.78572 0,-2.14286 0.16836,-0.16836 0.54593,0.16836 0.71429,0 0.33671,-0.33672 -0.21296,-1.00266 0,-1.42857 0.15058,-0.30117 0.71428,-0.37757 0.71428,-0.71429 0,-0.33672 -0.47619,-0.47619 -0.71428,-0.71428 -0.2381,-0.2381 -0.41312,-0.56371 -0.71429,-0.71429 -0.42592,-0.21296 -1.09185,0.33672 -1.42857,0 -0.16836,-0.16836 0.16836,-0.54593 0,-0.71429 -0.16836,-0.16835 -0.47619,0 -0.71429,0 -0.23809,0 -0.47619,0 -0.71428,0 -1.42857,0 -2.85714,0 -4.28572,0 -0.32168,0 -1.92547,-0.10869 -2.14285,0 -0.30117,0.15059 -0.41312,0.56371 -0.71429,0.71429 -0.21296,0.10648 -0.50133,-0.10648 -0.71428,0 -0.60234,0.30117 -0.82624,1.1274 -1.42858,1.42857 -0.18467,0.0923 -3.77942,0 -4.28571,0 -0.37351,0 -2.66933,0.0939 -2.85714,0 -0.18965,-0.0948 -2.04803,-1.95321 -2.14286,-2.14286 -0.10648,-0.21295 0.10648,-0.50132 0,-0.71428 -0.15058,-0.30117 -0.5637,-0.41312 -0.71429,-0.71429 -0.10648,-0.21296 0.10648,-0.50132 0,-0.71428 -1.48634,-2.97269 0.0493,0.76359 -1.42857,-0.71429 -0.16836,-0.16836 0.16836,-0.54593 0,-0.71428 -0.16836,-0.16836 -0.47619,0 -0.71428,0 -0.2381,0 -0.47619,0 -0.71429,0 -2.38095,0 -4.7619,0 -7.14286,0 -0.33678,0 -3.53905,-0.0324 -3.57142,0 -0.16836,0.16835 0.23809,0.71428 0,0.71428 -0.2381,0 0,-0.95238 0,-0.71428 0,0.47619 0,0.95238 0,1.42857 0,0.23809 0,0.47619 0,0.71428 0,0.2381 0.16835,0.54593 0,0.71429 -0.16836,0.16836 -0.50133,0.10648 -0.71429,0 -0.30117,-0.15059 -0.41312,-0.5637 -0.71429,-0.71429 -0.21295,-0.10648 -0.50132,0.10648 -0.71428,0 -0.30117,-0.15058 -0.41312,-0.5637 -0.71429,-0.71428 -0.21296,-0.10648 -0.50132,0.10648 -0.71428,0 -0.30117,-0.15059 -0.41312,-0.5637 -0.71429,-0.71429 -0.21296,-0.10648 -0.50133,0.10648 -0.71428,0 -0.38149,-0.19074 -1.76682,-1.76681 -2.14286,-2.14286 -0.2381,-0.23809 -0.47619,-0.47619 -0.71429,-0.71428 -0.23809,-0.2381 -0.41311,-0.5637 -0.71428,-0.71429 -0.21296,-0.10648 -0.54593,0.16836 -0.71429,0 -0.16836,-0.16836 0.10648,-0.50132 0,-0.71428 -0.15058,-0.30117 -0.5637,-0.41312 -0.71428,-0.71429 -0.10648,-0.21296 0,-0.47619 0,-0.71428 0,-0.2381 -0.2381,-0.71429 0,-0.71429 0.23809,0 0,0.95238 0,0.71429 0,-0.4762 0.21295,-1.00266 0,-1.42858 -0.10648,-0.21295 -0.47619,0 -0.71429,0 -0.32168,0 -1.92548,-0.10869 -2.14286,0 -0.30117,0.15059 -0.41311,0.56371 -0.71428,0.71429 -0.21296,0.10648 -0.47619,0 -0.71429,0 -0.39909,0 -3.14991,-0.14051 -3.57143,0 -0.50507,0.16836 -0.92349,0.54593 -1.42857,0.71429 -0.45175,0.15058 -0.95238,0 -1.42857,0 -1.19048,0 -2.38095,0 -3.57143,0 -0.23809,0 -0.47619,0 -0.71428,0 -0.2381,0 -0.50133,0.10647 -0.71429,0 -0.30117,-0.15059 -0.41312,-0.56371 -0.71429,-0.71429 -0.45062,-0.22531 -3.1208,0.22531 -3.57142,0 -0.60234,-0.30117 -0.82624,-1.1274 -1.42858,-1.42857 -0.42591,-0.21296 -1.09185,0.33672 -1.42857,0 -0.16836,-0.16836 0.16836,-0.54593 0,-0.71429 -0.16836,-0.16836 -0.47619,0 -0.71428,0 -0.2381,0 -0.54593,-0.16836 -0.71429,0 -0.17188,0.17188 0.17188,2.68527 0,2.85715 -0.16836,0.16835 -0.50133,-0.10648 -0.71428,0 -0.30117,0.15058 -0.41312,0.5637 -0.71429,0.71428 -0.42592,0.21296 -1.00265,-0.21296 -1.42857,0 -0.30117,0.15059 -0.41312,0.5637 -0.71429,0.71429 -0.18781,0.0939 -2.48363,0 -2.85714,0 -0.37351,0 -2.66933,0.0939 -2.85714,0 -0.70288,-0.35144 -2.15427,-2.50571 -2.85715,-2.85715 -0.21295,-0.10648 -0.50132,0.10648 -0.71428,0 -0.30117,-0.15058 -0.41312,-0.5637 -0.71429,-0.71428 -0.21296,-0.10648 -0.54592,0.16836 -0.71428,0 -0.16836,-0.16836 0.16836,-0.54593 0,-0.71429 -0.16836,-0.16836 -0.54593,0.16836 -0.71429,0 -0.16836,-0.16836 0.10648,-0.50132 0,-0.71428 -0.22749,-0.45498 -3.01016,-3.01017 -3.57143,-3.57143 -0.23809,-0.2381 -0.5637,-0.41312 -0.71428,-0.71429 -0.10648,-0.21296 0.16836,-0.54592 0,-0.71428 -0.16836,-0.16836 -0.71429,0.23809 -0.71429,0 0,-0.2381 0.88265,-0.16836 0.71429,0 -0.37646,0.37646 -0.98559,0.41896 -1.42857,0.71428 -0.28017,0.18678 -0.47619,0.47619 -0.71429,0.71429 -0.2381,0.23809 -0.5637,0.41311 -0.71429,0.71428 -0.10648,0.21296 0.10648,0.50133 0,0.71429 -0.15058,0.30117 -0.5637,0.41312 -0.71428,0.71429 -0.10648,0.21295 0.23809,0.71428 0,0.71428 -0.2381,0 0.23809,-0.71428 0,-0.71428 -1.16159,0 -0.18033,1.33841 -1.42857,0.71428 -0.60234,-0.30117 -0.82624,-1.1274 -1.42857,-1.42857 -0.21296,-0.10648 -0.48841,0.0753 -0.71429,0 -0.47619,-0.2381 -0.95238,-0.47619 -1.42857,-0.71429 -0.2381,0 -0.48841,0.0753 -0.71429,0 -0.50507,-0.16835 -0.92349,-0.54592 -1.42857,-0.71428 -0.45175,-0.15059 -1.09185,0.33672 -1.42857,0 -0.16836,-0.16836 0.16836,-0.54593 0,-0.71429 -0.16836,-0.16836 -0.50133,0.10648 -0.71429,0 -0.30117,-0.15058 -0.41311,-0.5637 -0.71428,-0.71428 -0.4436,-0.2218 -3.82802,0.22885 -4.28572,0 -0.30117,-0.15059 -0.41311,-0.5637 -0.71428,-0.71429 -0.42592,-0.21296 -1.00266,0.21296 -1.42857,0 -0.30117,-0.15058 -0.41312,-0.5637 -0.71429,-0.71428 -0.21296,-0.10648 -0.47619,0 -0.71428,0 -0.2381,0 -0.50133,-0.10648 -0.71429,0 -0.30117,0.15058 -0.47619,0.47619 -0.71429,0.71428 -0.23809,0.2381 -0.5637,0.41312 -0.71428,0.71429 -0.10648,0.21296 0.16836,0.54592 0,0.71428 -0.33672,0.33672 -1.00266,-0.21296 -1.42857,0 -0.60234,0.30117 -0.82624,1.1274 -1.42857,1.42857 -0.21296,0.10648 -0.48841,-0.0753 -0.71429,0 -0.50508,0.16836 -0.9235,0.54593 -1.42857,0.71429 -0.44957,0.14986 -2.9276,0 -3.57143,0 -0.321684,0 -1.925476,0.10869 -2.142857,0 -0.301169,-0.15058 -0.476191,-0.47619 -0.714286,-0.71429 -0.238095,-0.23809 -0.47619,-0.47619 -0.714286,-0.71428 -0.952381,-0.95238 -1.904761,-1.90476 -2.857142,-2.85714 -0.238096,-0.2381 -0.413117,-0.56371 -0.714286,-0.71429 -0.212959,-0.10648 -0.545927,0.16836 -0.714286,0 -0.168359,-0.16836 0.168359,-0.54593 0,-0.71429 -0.168359,-0.16835 -0.545927,0.16836 -0.714286,0 -0.168358,-0.16835 0.10648,-0.50132 0,-0.71428 -0.09483,-0.18965 -1.953206,-2.04803 -2.142857,-2.14286 -0.212959,-0.10648 -0.501327,0.10648 -0.714285,0 -0.30117,-0.15058 -0.413117,-0.5637 -0.714286,-0.71428 -0.212959,-0.10648 -0.545927,0.16835 -0.714286,0 -0.168359,-0.16836 0.168359,-0.54593 0,-0.71429 -0.357143,-0.35714 -1.785714,0.35714 -2.142857,0 -0.168359,-0.16836 0.168359,-0.54593 0,-0.71429 -0.168359,-0.16835 -0.488409,0.0753 -0.714286,0 -0.505076,-0.16835 -0.923495,-0.54592 -1.428571,-0.71428 -0.225877,-0.0753 -0.501327,0.10648 -0.714286,0 -0.301169,-0.15059 -0.413116,-0.5637 -0.714286,-0.71429 -0.283208,-0.1416 -1.996831,0.14603 -2.142857,0 -0.168358,-0.16836 0.10648,-0.50132 0,-0.71428 -2.368987,-2.36899 0.336718,0.67343 -0.714285,-1.42857 -1.486343,-2.97269 0.04931,0.76359 -1.428572,-0.71429 -0.168359,-0.16836 0.10648,-0.50133 0,-0.71429 -0.150585,-0.30117 -0.563701,-0.41311 -0.714286,-0.71428 -0.106479,-0.21296 0.168359,-0.54593 0,-0.71429 -0.168358,-0.16836 -0.545927,0.16836 -0.714285,0 -0.168359,-0.16836 0.168358,-0.54592 0,-0.71428 -0.336718,-0.33672 -1.002654,0.21296 -1.428572,0 -0.602338,-0.30117 -0.826233,-1.12741 -1.428571,-1.42857 -0.212959,-0.10648 -0.545927,0.16835 -0.714286,0 -0.168359,-0.16836 0.168359,-0.54593 0,-0.71429 -0.168359,-0.16836 -0.47619,0 -0.714286,0 -0.238095,0 -0.501326,-0.10648 -0.714285,0 -0.30117,0.15058 -0.476191,0.47619 -0.714286,0.71429 -0.238095,0.23809 -0.563701,0.41311 -0.714286,0.71428 -0.106479,0.21296 0.10648,0.50133 0,0.71429 -0.428571,0.85714 -1.714285,1.28571 -2.142857,2.14285 -0.106479,0.21296 0.10648,0.50133 0,0.71429 -2.368987,2.36899 0.336718,-0.67344 -0.714286,1.42857 -0.409434,0.81887 -1.490366,0.99358 -2.142857,1.42857 -0.280166,0.18678 -0.413116,0.5637 -0.714285,0.71429 -0.03737,0.0187 -2.105489,0.0187 -2.142858,0 -0.381488,-0.19075 -1.766811,-1.76681 -2.142857,-2.14286 -0.420103,-0.4201 -2.691757,-2.52637 -2.857143,-2.85714 -0.106479,-0.21296 0.10648,-0.50133 0,-0.71429 -0.09483,-0.18965 -1.953206,-2.04803 -2.142857,-2.14285 -0.212959,-0.10648 -0.501327,0.10647 -0.714285,0 -0.30117,-0.15059 -0.413117,-0.56371 -0.714286,-0.71429 -0.425918,-0.21296 -1.091854,0.33672 -1.428572,0 -0.168358,-0.16836 0.168359,-0.54593 0,-0.71429 -0.168358,-0.16835 -0.47619,0 -0.714285,0 -0.321684,0 -1.925476,-0.10869 -2.142857,0 -0.633099,0.31655 -1.492633,1.70938 -2.142858,2.14286 C 45.98559,651.22893 45.47619,651.4098 45,651.6479 c -0.47619,0.23809 -0.923495,0.54592 -1.428571,0.71428 -0.225877,0.0753 -0.501327,-0.10648 -0.714286,0 -0.301169,0.15059 -0.413117,0.5637 -0.714286,0.71429 -0.212959,0.10648 -0.501327,-0.10648 -0.714286,0 -0.301169,0.15058 -0.413116,0.5637 -0.714285,0.71428 -0.212959,0.10648 -0.476191,0 -0.714286,0 -0.238095,0 -0.47619,0 -0.714286,0 -1.496625,0 -2.185418,0.20973 -3.571428,-0.71428 -0.280166,-0.18678 -0.413117,-0.5637 -0.714286,-0.71429 -0.212959,-0.10648 -0.501327,0.10648 -0.714286,0 -0.602338,-0.30117 -0.826233,-1.1274 -1.428571,-1.42857 -0.212959,-0.10648 -0.545927,0.16836 -0.714286,0 -0.168359,-0.16836 0.168359,-0.54593 0,-0.71428 -0.168359,-0.16836 -0.47619,0 -0.714286,0 -0.238095,0 -0.47619,0 -0.714285,0 -0.122552,0 -4.023787,0.0873 -4.285715,0 -0.319438,-0.10648 -0.413116,-0.56371 -0.714285,-0.71429 -0.283209,-0.1416 -1.996831,0.14603 -2.142857,0 -0.168359,-0.16836 0.168358,-0.54593 0,-0.71429 -0.336718,-0.33671 -1.428572,0.47619 -1.428572,0 0,-0.23809 0.952381,0 0.714286,0 -0.476191,0 -0.952381,0 -1.428572,0 -0.238095,0 -0.47619,0 -0.714285,0 -0.238096,0 -0.501327,0.10648 -0.714286,0 -0.301169,-0.15058 -0.47619,-0.47619 -0.714286,-0.71428 -0.561262,-0.56126 -3.116448,-3.34394 -3.571428,-3.57143 -0.212959,-0.10648 -0.476191,0 -0.714286,0 -0.238095,0 -0.47619,0 -0.714286,0 -0.238095,0 -0.501327,-0.10648 -0.714285,0 -0.30117,0.15058 -0.413117,0.5637 -0.714286,0.71429 -0.212959,0.10647 -0.501327,-0.10648 -0.714286,0 -0.857143,0.42857 -1.285714,1.71428 -2.142857,2.14285 -0.2129589,0.10648 -0.5013269,-0.10648 -0.7142857,0 -0.2380953,0.2381 -0.4761905,0.47619 -0.7142857,0.71429 -0.2380953,0.23809 -0.4131164,0.5637 -0.7142857,0.71428 C 6.8376196,649.30052 5.7790054,647.0374 5,646.6479 c -0.2173814,-0.10869 -1.8211731,0 -2.1428571,0 -0.2380953,0 -0.4761905,0 -0.7142858,0 -0.2380952,0 -0.5459269,-0.16836 -0.7142857,0 -0.1683587,0.16836 0.1064795,0.50132 0,0.71428 -0.4285714,0.85715 -1.71428569,1.28572 -2.14285711,2.14286 -0.10647943,0.21296 0.16835875,0.54593 0,0.71429 -0.49999999,0.5 -0.92857139,-0.5 -1.42857139,0 -0.1683588,0.16835 0.1683587,0.54592 0,0.71428 -0.1683588,0.16836 -0.4761905,0 -0.7142858,0 -0.321684,0 -1.9254757,0.10869 -2.1428571,0 -0.3011693,-0.15058 -0.4761905,-0.47619 -0.7142857,-0.71428 -0.2380953,-0.2381 -0.4761905,-0.4762 -0.7142857,-0.71429 -0.376046,-0.37605 -1.9521129,-1.76137 -2.1428572,-2.14286 -0.1064794,-0.21296 0.1683588,-0.54592 0,-0.71428 -0.3571428,-0.35715 -1.7857144,0.35714 -2.1428574,0 -0.376461,-0.37646 -0.337824,-1.05211 -0.714285,-1.42857 -0.168359,-0.16836 -0.545927,0.16835 -0.714286,0 -0.336718,-0.33672 0.212959,-1.00266 0,-1.42858 -0.150585,-0.30117 -0.563701,-0.41311 -0.714286,-0.71428 -0.21344,-0.42688 0.470208,-1.42857 -0.714286,-1.42857 -0.238095,0 0.10648,0.50132 0,0.71428 -0.150584,0.30117 -0.47619,0.47619 -0.714285,0.71429 -0.561263,0.56126 -3.116449,3.34394 -3.571429,3.57143 -0.212959,0.10648 -0.501327,-0.10648 -0.714286,0 -0.301169,0.15058 -0.413116,0.5637 -0.714285,0.71428 -0.03737,0.0187 -2.105489,0.0187 -2.142857,0 -0.45498,-0.22749 -3.010167,-3.01016 -3.571429,-3.57143 -0.238095,-0.23809 -0.413116,-0.5637 -0.714286,-0.71428 -0.212959,-0.10648 -0.501327,0.10648 -0.714285,0 -0.30117,-0.15059 -0.413117,-0.5637 -0.714286,-0.71429 -0.212959,-0.10648 -0.476191,0 -0.714286,0 -0.238095,0 -0.545927,-0.16836 -0.714286,0 -0.168358,0.16836 0.168359,0.54593 0,0.71429 -0.168358,0.16836 -0.545927,-0.16836 -0.714285,0 -0.168359,0.16836 0.106479,0.50133 0,0.71428 -0.150585,0.30117 -0.563701,0.41312 -0.714286,0.71429 -0.212959,0.42592 0.212959,1.00265 0,1.42857 -0.428571,0.85714 -1.714286,1.28572 -2.142857,2.14286 -0.10648,0.21296 0.106479,0.50133 0,0.71428 -0.150585,0.30117 -0.563701,0.41312 -0.714286,0.71429 -0.212959,0.42592 0.336718,1.09185 0,1.42857 -0.168359,0.16836 -0.545927,-0.16836 -0.714286,0 -0.168358,0.16836 0,0.47619 0,0.71429 0,0.23809 0,0.47619 0,0.71428 0,0.26231 0.02874,2.8284 0,2.85715 -0.168358,0.16835 -0.545927,-0.16836 -0.714285,0 -0.168359,0.16835 0.168358,0.54592 0,0.71428 -0.336718,0.33672 -1.002654,-0.21296 -1.428572,0 -0.301169,0.15059 -0.413116,0.5637 -0.714285,0.71429 -0.217382,0.10869 -1.821174,0 -2.142858,0 -0.336784,0 -3.539055,0.0324 -3.571428,0 -0.168359,-0.16836 0.168359,-0.54593 0,-0.71429 -0.336718,-0.33672 -1.002654,0.21296 -1.428572,0 -0.301169,-0.15058 -0.47619,-0.47619 -0.714285,-0.71428 -0.238096,-0.2381 -0.563701,-0.41312 -0.714286,-0.71429 -0.106479,-0.21296 0.106479,-0.50133 0,-0.71429 -0.428571,-0.85714 -1.714286,-1.28571 -2.142857,-2.14285 -0.10648,-0.21296 0.168359,-0.54593 0,-0.71429 -0.168359,-0.16836 -0.545927,0.16836 -0.714286,0 -0.336717,-0.33672 0.336718,-1.09185 0,-1.42857 -0.168359,-0.16836 -0.545927,0.16836 -0.714286,0 -1.477882,-1.47788 2.258401,0.0578 -0.714285,-1.42857 -0.212959,-0.10648 -0.545927,0.16836 -0.714286,0 -0.168359,-0.16836 0.168359,-0.54593 0,-0.71429 -0.195444,-0.19544 -2.469652,0.19375 -2.857143,0 -0.301169,-0.15058 -0.413116,-0.5637 -0.714286,-0.71428 -0.212958,-0.10648 -0.47619,0 -0.714285,0 -0.238096,0 -0.501327,-0.10648 -0.714286,0 -2.972686,1.48634 0.763597,-0.0493 -0.714286,1.42857 -1.477882,1.47788 0.05777,-2.2584 -1.428571,0.71428 -0.10648,0.21296 0.106479,0.50133 0,0.71429 -0.150585,0.30117 -0.563701,0.41312 -0.714286,0.71429 -0.09234,0.18467 0,3.77942 0,4.28571 0,0.17323 -0.02297,2.11989 0,2.14286 0.05702,0.057 1.143101,-0.0476 1.428572,0 1.197533,0.19959 2.380952,0.47619 3.571428,0.71428 z"
         style="fill:#feab41;fill-opacity:1;stroke:none;filter:url(#filter4021)" />
      <path
         sodipodi:nodetypes="cssssccssccsscsssscssscsssccsssccssscc"
         inkscape:connector-curvature="0"
         id="path2998"
         d="m 19.022321,700.375 c 0,0 -4.141323,8.4687 -11.366071,16.6875 -3.612374,4.1094 -7.7336251,8.13211 -11.8125,10.96875 -4.0788749,2.83664 -8.043549,4.38813 -11.34375,4.09375 -10.901004,-0.97239 -15.923252,-7.73845 -18.65625,-14.65625 -2.732998,-6.9178 -2.71875,-13.65625 -2.71875,-13.65625 l -4.375,-1.40625 c 0,0 -4.903953,6.78904 -11.40625,13.03125 -3.251148,3.1211 -6.874166,6.09524 -10.34375,7.9375 -3.469584,1.84226 -6.6055,2.48313 -9.125,1.6875 l -1.46875,4.59375 c 4.266214,1.34723 8.746369,0.1131 12.84375,-2.0625 4.097381,-2.1756 7.99222,-5.38003 11.4375,-8.6875 3.318991,-3.18623 6.133289,-6.43404 8.25,-9 0.423135,2.69727 1.0924,5.93902 2.4375,9.34375 3.125224,7.9106 9.878535,16.51367 22.6875,17.65625 5.021322,0.44791 9.951625,-1.75261 14.53125,-4.9375 4.579625,-3.18489 8.884719,-7.45954 12.65625,-11.75 4.511832,-5.13262 7.754579,-9.59903 10.03125,-12.9375 0.979429,2.97157 2.458647,6.89324 4.625,10.9375 4.400527,8.21512 11.693838,17.18881 23.0625,18.65625 12.62528,1.62964 26.411424,-9.09163 36.102679,-17.3125 7.20778,-6.1142 10.629943,-11.94359 13.022321,-14.77679 0.998975,1.61145 2.41792,6.77481 4.5625,8.80804 4.83197,4.58111 14.85272,6.98525 28.12946,8.65625 11.25807,1.41694 22.25903,-2.61806 32.37054,-6.18304 10.11151,-3.56498 15.77679,-8.21428 15.77679,-8.21428 L 178.5,707.53125 c 0,0 -7.16684,3.77395 -16.9375,7.21875 -9.77066,3.4448 -22.11915,6.45841 -31.96875,5.21875 -12.38107,-1.55827 -19.87143,-3.44646 -23.98214,-7.34375 -4.11071,-3.89729 -4.76786,-9.59375 -4.76786,-9.59375 L 96.6875,702.3125 c 0,0 -3.679107,7.86778 -12.955357,15.73661 -9.27625,7.86883 -24.419405,17.51935 -34.495536,16.21875 -9.134028,-1.179 -15.749414,-11.13566 -19.794643,-18.6875 C 25.396735,708.02852 24.5,701.125 24.5,701.125 z"
         style="font-size:medium;font-style:normal;font-variant:normal;font-weight:normal;font-stretch:normal;text-indent:0;text-align:start;text-decoration:none;line-height:normal;letter-spacing:normal;word-spacing:normal;text-transform:none;direction:ltr;block-progression:tb;writing-mode:lr-tb;text-anchor:start;baseline-shift:baseline;color:#000000;fill:#71bfd6;fill-opacity:1;stroke:none;stroke-width:4.80000019;marker:none;visibility:visible;display:inline;overflow:visible;filter:url(#filter3981);enable-background:accumulate;font-family:Sans;-inkscape-font-specification:Sans" />
      <path
         sodipodi:nodetypes="cscscsc"
         inkscape:connector-curvature="0"
         id="path4220"
         d="m 83.571429,728.07647 c 0,0 20.896371,17.83516 33.571431,17.85714 24.49602,0.0425 65,-34.28571 65,-34.28571 0,0 5.65459,32.24532 18.57143,35 24.22179,5.16561 58.57142,-54.28572 58.57142,-54.28572 4.28571,15.71429 28.16856,61.43787 78.57143,65.71429 139.25981,11.81546 306.42857,-102.85714 306.42857,-102.85714"
         style="fill:none;stroke:#030202;stroke-width:12.39999962;stroke-linecap:butt;stroke-linejoin:bevel;stroke-miterlimit:4;stroke-opacity:1;stroke-dasharray:none" />
      <text
         sodipodi:linespacing="125%"
         id="text2993"
         y="691.64789"
         x="273.57141"
         style="font-size:40px;font-style:normal;font-variant:normal;font-weight:normal;font-stretch:normal;line-height:125%;letter-spacing:0px;word-spacing:0px;fill:#000000;fill-opacity:1;stroke:none;font-family:Roboto;-inkscape-font-specification:Roboto"
         xml:space="preserve"><tspan
           y="691.64789"
           x="273.57141"
           id="tspan2995"
           sodipodi:role="line">felixstowe</tspan></text>
      <text
         sodipodi:linespacing="125%"
         id="text2997"
         y="733.79071"
         x="357.14285"
         style="font-size:40px;font-style:normal;font-variant:normal;font-weight:normal;font-stretch:normal;line-height:125%;letter-spacing:0px;word-spacing:0px;fill:#000000;fill-opacity:1;stroke:none;font-family:Roboto;-inkscape-font-specification:Roboto"
         xml:space="preserve"><tspan
           style="font-style:italic;-inkscape-font-specification:Roboto Italic"
           y="733.79071"
           x="357.14285"
           id="tspan2999"
           sodipodi:role="line">radio</tspan></text>
      <text
         sodipodi:linespacing="125%"
         id="text3001"
         y="753.07648"
         x="530.71429"
         style="font-size:48px;font-style:italic;font-variant:normal;font-weight:normal;font-stretch:normal;line-height:125%;letter-spacing:0px;word-spacing:0px;fill:#000000;fill-opacity:1;stroke:none;font-family:Roboto;-inkscape-font-specification:Roboto Italic"
         xml:space="preserve"><tspan
           y="753.07648"
           x="530.71429"
           id="tspan3003"
           sodipodi:role="line">107.5 FM</tspan></text>
    </g>
  </g>
</svg>
